<svg width="488" height="188" viewBox="0 0 488 188" fill="none" xmlns="http://www.w3.org/2000/svg">
    <g clip-path="url(#clip0_40_172)">
        <path fill-rule="evenodd" clip-rule="evenodd" d="M316.853 137.123H224.372C208.624 137.123 195.839 124.337 195.839 108.589C195.839 92.841 208.624 80.056 224.372 80.056C226.318 80.056 228.219 80.251 230.056 80.623C235.773 63.711 251.781 51.522 270.613 51.522C289.444 51.522 305.452 63.711 311.17 80.623C313.007 80.251 314.907 80.056 316.853 80.056C332.601 80.056 345.387 92.841 345.387 108.589C345.387 124.337 332.601 137.123 316.853 137.123Z" fill="black" fill-opacity="0.15" stroke="#0072FF" stroke-width="2.5" stroke-miterlimit="1.5" stroke-linecap="round" stroke-linejoin="round"/>
        <path d="M250.507 85.36L247.423 93.412H247.003L244.639 87.796L242.275 93.412H241.843L238.759 85.36H240.163L242.143 90.712L244.411 85.228H244.855L247.135 90.712L249.115 85.36H250.507Z" fill="#0072FF"/>
        <path d="M256.423 90.7481H252.031C252.115 91.2281 252.319 91.6121 252.667 91.8761C253.015 92.1521 253.447 92.2961 253.951 92.2961C254.563 92.2961 255.139 92.0681 255.667 91.6001L256.267 92.4641C255.595 93.1001 254.815 93.4121 253.915 93.4121C253.315 93.4121 252.775 93.2801 252.295 93.0041C251.815 92.7401 251.443 92.3681 251.167 91.9001C250.891 91.4321 250.747 90.9161 250.747 90.3401C250.747 89.7761 250.879 89.2481 251.155 88.7801C251.419 88.3121 251.791 87.9401 252.259 87.6641C252.727 87.3881 253.231 87.2561 253.795 87.2561C254.311 87.2561 254.779 87.3761 255.199 87.6041C255.607 87.8441 255.931 88.1681 256.171 88.5761C256.399 88.9841 256.519 89.4401 256.519 89.9561C256.519 90.2081 256.483 90.4721 256.423 90.7481ZM253.747 88.3241C253.327 88.3241 252.967 88.4561 252.655 88.7081C252.355 88.9721 252.151 89.3201 252.055 89.7641H255.259C255.247 89.3201 255.103 88.9601 254.803 88.7081C254.515 88.4561 254.167 88.3241 253.747 88.3241Z" fill="#0072FF"/>
        <path d="M261.187 87.256C261.739 87.256 262.231 87.388 262.675 87.652C263.119 87.928 263.455 88.3 263.707 88.768C263.959 89.236 264.079 89.764 264.079 90.34C264.079 90.916 263.959 91.444 263.707 91.912C263.455 92.368 263.119 92.74 262.675 93.016C262.231 93.28 261.739 93.412 261.199 93.412C260.767 93.412 260.371 93.328 260.011 93.16C259.651 93.004 259.363 92.764 259.135 92.464V93.28H257.959V84.28H259.219V88.108C259.447 87.832 259.723 87.628 260.059 87.484C260.407 87.328 260.779 87.256 261.187 87.256ZM260.983 92.26C261.319 92.26 261.619 92.176 261.895 92.02C262.171 91.852 262.387 91.624 262.543 91.336C262.699 91.036 262.783 90.7 262.783 90.328C262.783 89.956 262.699 89.62 262.543 89.332C262.387 89.044 262.171 88.816 261.895 88.66C261.619 88.492 261.319 88.408 260.983 88.408C260.671 88.408 260.383 88.48 260.107 88.624C259.843 88.756 259.627 88.972 259.459 89.272C259.291 89.56 259.207 89.92 259.207 90.34C259.207 90.76 259.291 91.12 259.459 91.408C259.627 91.696 259.843 91.912 260.107 92.056C260.383 92.188 260.671 92.26 260.983 92.26Z" fill="#0072FF"/>
        <path d="M267.355 93.4121C266.851 93.4121 266.395 93.3041 265.987 93.1001C265.579 92.8961 265.243 92.6201 264.979 92.2721L265.699 91.4801C265.951 91.7561 266.215 91.9601 266.491 92.1041C266.755 92.2481 267.043 92.3201 267.355 92.3201C267.631 92.3201 267.859 92.2601 268.039 92.1521C268.219 92.0441 268.303 91.8761 268.303 91.6601C268.303 91.4801 268.231 91.3481 268.099 91.2521C267.967 91.1561 267.763 91.0481 267.475 90.9281L266.875 90.6761C266.359 90.4601 265.963 90.2201 265.711 89.9681C265.459 89.7161 265.339 89.3801 265.339 88.9601C265.339 88.4321 265.531 88.0121 265.927 87.7121C266.323 87.4121 266.815 87.2561 267.415 87.2561C268.267 87.2561 268.939 87.5561 269.455 88.1681L268.771 88.9481C268.591 88.7561 268.375 88.6121 268.135 88.5041C267.895 88.3961 267.643 88.3481 267.391 88.3481C267.139 88.3481 266.947 88.3961 266.803 88.4921C266.659 88.5881 266.587 88.7321 266.587 88.9121C266.587 89.0681 266.647 89.1881 266.755 89.2841C266.875 89.3801 267.079 89.4881 267.367 89.6081L267.931 89.8361C268.495 90.0641 268.903 90.3161 269.155 90.5921C269.407 90.8561 269.539 91.1921 269.539 91.6121C269.539 92.1761 269.335 92.6201 268.915 92.9441C268.495 93.2561 267.979 93.4121 267.355 93.4121Z" fill="#0072FF"/>
        <path d="M270.991 87.3881H272.251V93.2801H270.991V87.3881ZM271.627 86.0201C271.387 86.0201 271.183 85.9361 271.015 85.7801C270.847 85.6241 270.763 85.4201 270.763 85.1921C270.763 84.9641 270.847 84.7601 271.015 84.6041C271.183 84.4361 271.387 84.3521 271.627 84.3521C271.855 84.3521 272.059 84.4361 272.227 84.6041C272.395 84.7601 272.479 84.9641 272.479 85.1921C272.479 85.4201 272.395 85.6241 272.227 85.7801C272.059 85.9361 271.855 86.0201 271.627 86.0201Z" fill="#0072FF"/>
        <path d="M277.579 92.2121V93.2801C277.183 93.3641 276.835 93.4121 276.535 93.4121C275.851 93.4121 275.323 93.2441 274.939 92.9081C274.555 92.5601 274.363 92.0441 274.363 91.3601V88.4801H273.403V87.3881H274.363V85.8401H275.635V87.3881H277.387V88.4801H275.635V91.2521C275.635 91.6241 275.731 91.8881 275.935 92.0441C276.127 92.2001 276.415 92.2721 276.799 92.2721C276.979 92.2721 277.231 92.2481 277.579 92.2121Z" fill="#0072FF"/>
        <path d="M284.035 90.7481H279.643C279.727 91.2281 279.931 91.6121 280.279 91.8761C280.627 92.1521 281.059 92.2961 281.563 92.2961C282.175 92.2961 282.751 92.0681 283.279 91.6001L283.879 92.4641C283.207 93.1001 282.427 93.4121 281.527 93.4121C280.927 93.4121 280.387 93.2801 279.907 93.0041C279.427 92.7401 279.055 92.3681 278.779 91.9001C278.503 91.4321 278.359 90.9161 278.359 90.3401C278.359 89.7761 278.491 89.2481 278.767 88.7801C279.031 88.3121 279.403 87.9401 279.871 87.6641C280.339 87.3881 280.843 87.2561 281.407 87.2561C281.923 87.2561 282.391 87.3761 282.811 87.6041C283.219 87.8441 283.543 88.1681 283.783 88.5761C284.011 88.9841 284.131 89.4401 284.131 89.9561C284.131 90.2081 284.095 90.4721 284.035 90.7481ZM281.359 88.3241C280.939 88.3241 280.579 88.4561 280.267 88.7081C279.967 88.9721 279.763 89.3201 279.667 89.7641H282.871C282.859 89.3201 282.715 88.9601 282.415 88.7081C282.127 88.4561 281.779 88.3241 281.359 88.3241Z" fill="#0072FF"/>
        <path d="M294.679 84.28V93.28H293.503V92.44C293.287 92.74 292.999 92.98 292.639 93.16C292.279 93.328 291.883 93.412 291.439 93.412C290.887 93.412 290.395 93.28 289.951 93.016C289.519 92.74 289.183 92.38 288.931 91.9C288.679 91.444 288.559 90.916 288.559 90.34C288.559 89.764 288.679 89.236 288.931 88.768C289.183 88.3 289.519 87.928 289.963 87.652C290.407 87.388 290.899 87.256 291.439 87.256C291.847 87.256 292.219 87.328 292.555 87.484C292.903 87.628 293.179 87.832 293.407 88.108V84.28H294.679ZM291.655 92.26C291.967 92.26 292.255 92.188 292.519 92.044C292.795 91.912 293.011 91.696 293.179 91.408C293.347 91.12 293.431 90.76 293.431 90.34C293.431 89.92 293.347 89.56 293.179 89.272C293.011 88.984 292.795 88.768 292.519 88.624C292.243 88.48 291.955 88.408 291.655 88.408C291.319 88.408 291.007 88.492 290.731 88.648C290.455 88.816 290.239 89.044 290.083 89.332C289.927 89.62 289.843 89.956 289.843 90.328C289.843 90.7 289.915 91.036 290.071 91.324C290.227 91.624 290.443 91.852 290.719 92.008C290.995 92.176 291.307 92.26 291.655 92.26Z" fill="#0072FF"/>
        <path d="M299.239 93.4121C298.675 93.4121 298.147 93.2681 297.679 92.9921C297.199 92.7161 296.827 92.3441 296.551 91.8761C296.275 91.4081 296.131 90.8921 296.131 90.3281C296.131 89.7641 296.275 89.2361 296.551 88.7681C296.827 88.3001 297.199 87.9401 297.679 87.6641C298.147 87.3881 298.675 87.2561 299.239 87.2561C299.815 87.2561 300.343 87.3881 300.823 87.6641C301.303 87.9401 301.675 88.3121 301.951 88.7801C302.227 89.2481 302.371 89.7641 302.371 90.3281C302.371 90.8921 302.227 91.4081 301.951 91.8761C301.675 92.3441 301.303 92.7161 300.823 93.0041C300.343 93.2681 299.815 93.4121 299.239 93.4121ZM299.239 92.2481C299.587 92.2481 299.899 92.1641 300.175 91.9961C300.451 91.8281 300.679 91.6001 300.835 91.3001C300.991 91.0121 301.075 90.6881 301.075 90.3401C301.075 89.9801 300.991 89.6561 300.835 89.3561C300.679 89.0561 300.451 88.8281 300.175 88.6601C299.899 88.4921 299.587 88.4081 299.251 88.4081C298.903 88.4081 298.591 88.4921 298.315 88.6601C298.039 88.8281 297.811 89.0561 297.655 89.3561C297.499 89.6561 297.415 89.9801 297.415 90.3401C297.415 90.7001 297.499 91.0241 297.655 91.3121C297.811 91.6121 298.027 91.8401 298.303 91.9961C298.579 92.1641 298.891 92.2481 299.239 92.2481Z" fill="#0072FF"/>
        <path d="M215.743 99.364H214.483V108.364H215.743V99.364Z" fill="#0072FF"/>
        <path d="M219.835 102.34C220.567 102.34 221.143 102.556 221.587 102.976C222.031 103.396 222.247 104.008 222.247 104.8V108.364H221.071V107.704C220.855 107.956 220.591 108.16 220.267 108.292C219.943 108.424 219.583 108.496 219.187 108.496C218.575 108.496 218.071 108.34 217.699 108.028C217.327 107.716 217.135 107.308 217.135 106.792C217.135 106.276 217.327 105.868 217.723 105.568C218.119 105.268 218.647 105.112 219.307 105.112H220.975V104.728C220.975 104.32 220.867 104.008 220.651 103.792C220.423 103.576 220.111 103.468 219.715 103.468C219.391 103.468 219.091 103.54 218.839 103.684C218.587 103.828 218.335 104.044 218.083 104.344L217.351 103.6C217.651 103.18 218.011 102.856 218.431 102.652C218.851 102.448 219.319 102.34 219.835 102.34ZM219.451 107.524C219.871 107.524 220.231 107.392 220.531 107.128C220.831 106.864 220.975 106.528 220.975 106.132V106.024H219.463C219.127 106.024 218.875 106.084 218.695 106.204C218.515 106.324 218.419 106.504 218.419 106.744C218.419 106.996 218.515 107.188 218.707 107.32C218.899 107.452 219.151 107.524 219.451 107.524Z" fill="#0072FF"/>
        <path d="M227.227 102.34C227.779 102.34 228.271 102.472 228.715 102.736C229.159 103.012 229.495 103.384 229.747 103.852C229.999 104.32 230.119 104.848 230.119 105.424C230.119 106 229.999 106.528 229.747 106.996C229.495 107.452 229.159 107.824 228.715 108.1C228.271 108.364 227.779 108.496 227.239 108.496C226.807 108.496 226.411 108.412 226.051 108.244C225.691 108.088 225.403 107.848 225.175 107.548V108.364H223.999V99.364H225.259V103.192C225.487 102.916 225.763 102.712 226.099 102.568C226.447 102.412 226.819 102.34 227.227 102.34ZM227.023 107.344C227.359 107.344 227.659 107.26 227.935 107.104C228.211 106.936 228.427 106.708 228.583 106.42C228.739 106.12 228.823 105.784 228.823 105.412C228.823 105.04 228.739 104.704 228.583 104.416C228.427 104.128 228.211 103.9 227.935 103.744C227.659 103.576 227.359 103.492 227.023 103.492C226.711 103.492 226.423 103.564 226.147 103.708C225.883 103.84 225.667 104.056 225.499 104.356C225.331 104.644 225.247 105.004 225.247 105.424C225.247 105.844 225.331 106.204 225.499 106.492C225.667 106.78 225.883 106.996 226.147 107.14C226.423 107.272 226.711 107.344 227.023 107.344Z" fill="#0072FF"/>
        <path d="M234.307 108.496C233.743 108.496 233.215 108.352 232.747 108.076C232.267 107.8 231.895 107.428 231.619 106.96C231.343 106.492 231.199 105.976 231.199 105.412C231.199 104.848 231.343 104.32 231.619 103.852C231.895 103.384 232.267 103.024 232.747 102.748C233.215 102.472 233.743 102.34 234.307 102.34C234.883 102.34 235.411 102.472 235.891 102.748C236.371 103.024 236.743 103.396 237.019 103.864C237.295 104.332 237.439 104.848 237.439 105.412C237.439 105.976 237.295 106.492 237.019 106.96C236.743 107.428 236.371 107.8 235.891 108.088C235.411 108.352 234.883 108.496 234.307 108.496ZM234.307 107.332C234.655 107.332 234.967 107.248 235.243 107.08C235.519 106.912 235.747 106.684 235.903 106.384C236.059 106.096 236.143 105.772 236.143 105.424C236.143 105.064 236.059 104.74 235.903 104.44C235.747 104.14 235.519 103.912 235.243 103.744C234.967 103.576 234.655 103.492 234.319 103.492C233.971 103.492 233.659 103.576 233.383 103.744C233.107 103.912 232.879 104.14 232.723 104.44C232.567 104.74 232.483 105.064 232.483 105.424C232.483 105.784 232.567 106.108 232.723 106.396C232.879 106.696 233.095 106.924 233.371 107.08C233.647 107.248 233.959 107.332 234.307 107.332Z" fill="#0072FF"/>
        <path d="M242.251 102.472V103.588H241.867C241.375 103.588 240.955 103.732 240.631 104.02C240.307 104.296 240.139 104.704 240.139 105.22V108.364H238.879V102.472H240.055V103.24C240.259 102.976 240.523 102.772 240.823 102.628C241.123 102.484 241.435 102.412 241.771 102.412C241.951 102.412 242.107 102.436 242.251 102.472Z" fill="#0072FF"/>
        <path d="M245.527 102.34C246.259 102.34 246.835 102.556 247.279 102.976C247.723 103.396 247.939 104.008 247.939 104.8V108.364H246.763V107.704C246.547 107.956 246.283 108.16 245.959 108.292C245.635 108.424 245.275 108.496 244.879 108.496C244.267 108.496 243.763 108.34 243.391 108.028C243.019 107.716 242.827 107.308 242.827 106.792C242.827 106.276 243.019 105.868 243.415 105.568C243.811 105.268 244.339 105.112 244.999 105.112H246.667V104.728C246.667 104.32 246.559 104.008 246.343 103.792C246.115 103.576 245.803 103.468 245.407 103.468C245.083 103.468 244.783 103.54 244.531 103.684C244.279 103.828 244.027 104.044 243.775 104.344L243.043 103.6C243.343 103.18 243.703 102.856 244.123 102.652C244.543 102.448 245.011 102.34 245.527 102.34ZM245.143 107.524C245.563 107.524 245.923 107.392 246.223 107.128C246.523 106.864 246.667 106.528 246.667 106.132V106.024H245.155C244.819 106.024 244.567 106.084 244.387 106.204C244.207 106.324 244.111 106.504 244.111 106.744C244.111 106.996 244.207 107.188 244.399 107.32C244.591 107.452 244.843 107.524 245.143 107.524Z" fill="#0072FF"/>
        <path d="M253.195 107.296V108.364C252.799 108.448 252.451 108.496 252.151 108.496C251.467 108.496 250.939 108.328 250.555 107.992C250.171 107.644 249.979 107.128 249.979 106.444V103.564H249.019V102.472H249.979V100.924H251.251V102.472H253.003V103.564H251.251V106.336C251.251 106.708 251.347 106.972 251.551 107.128C251.743 107.284 252.031 107.356 252.415 107.356C252.595 107.356 252.847 107.332 253.195 107.296Z" fill="#0072FF"/>
        <path d="M257.083 108.496C256.519 108.496 255.991 108.352 255.523 108.076C255.043 107.8 254.671 107.428 254.395 106.96C254.119 106.492 253.975 105.976 253.975 105.412C253.975 104.848 254.119 104.32 254.395 103.852C254.671 103.384 255.043 103.024 255.523 102.748C255.991 102.472 256.519 102.34 257.083 102.34C257.659 102.34 258.187 102.472 258.667 102.748C259.147 103.024 259.519 103.396 259.795 103.864C260.071 104.332 260.215 104.848 260.215 105.412C260.215 105.976 260.071 106.492 259.795 106.96C259.519 107.428 259.147 107.8 258.667 108.088C258.187 108.352 257.659 108.496 257.083 108.496ZM257.083 107.332C257.431 107.332 257.743 107.248 258.019 107.08C258.295 106.912 258.523 106.684 258.679 106.384C258.835 106.096 258.919 105.772 258.919 105.424C258.919 105.064 258.835 104.74 258.679 104.44C258.523 104.14 258.295 103.912 258.019 103.744C257.743 103.576 257.431 103.492 257.095 103.492C256.747 103.492 256.435 103.576 256.159 103.744C255.883 103.912 255.655 104.14 255.499 104.44C255.343 104.74 255.259 105.064 255.259 105.424C255.259 105.784 255.343 106.108 255.499 106.396C255.655 106.696 255.871 106.924 256.147 107.08C256.423 107.248 256.735 107.332 257.083 107.332ZM257.587 99.004H259.123V99.232L257.575 101.548H256.639L257.587 99.004Z" fill="#0072FF"/>
        <path d="M265.027 102.472V103.588H264.643C264.151 103.588 263.731 103.732 263.407 104.02C263.083 104.296 262.915 104.704 262.915 105.22V108.364H261.655V102.472H262.831V103.24C263.035 102.976 263.299 102.772 263.599 102.628C263.899 102.484 264.211 102.412 264.547 102.412C264.727 102.412 264.883 102.436 265.027 102.472Z" fill="#0072FF"/>
        <path d="M266.155 102.472H267.415V108.364H266.155V102.472ZM266.791 101.104C266.551 101.104 266.347 101.02 266.179 100.864C266.011 100.708 265.927 100.504 265.927 100.276C265.927 100.048 266.011 99.844 266.179 99.688C266.347 99.52 266.551 99.436 266.791 99.436C267.019 99.436 267.223 99.52 267.391 99.688C267.559 99.844 267.643 100.048 267.643 100.276C267.643 100.504 267.559 100.708 267.391 100.864C267.223 101.02 267.019 101.104 266.791 101.104Z" fill="#0072FF"/>
        <path d="M271.975 108.496C271.411 108.496 270.883 108.352 270.415 108.076C269.935 107.8 269.563 107.428 269.287 106.96C269.011 106.492 268.867 105.976 268.867 105.412C268.867 104.848 269.011 104.32 269.287 103.852C269.563 103.384 269.935 103.024 270.415 102.748C270.883 102.472 271.411 102.34 271.975 102.34C272.551 102.34 273.079 102.472 273.559 102.748C274.039 103.024 274.411 103.396 274.687 103.864C274.963 104.332 275.107 104.848 275.107 105.412C275.107 105.976 274.963 106.492 274.687 106.96C274.411 107.428 274.039 107.8 273.559 108.088C273.079 108.352 272.551 108.496 271.975 108.496ZM271.975 107.332C272.323 107.332 272.635 107.248 272.911 107.08C273.187 106.912 273.415 106.684 273.571 106.384C273.727 106.096 273.811 105.772 273.811 105.424C273.811 105.064 273.727 104.74 273.571 104.44C273.415 104.14 273.187 103.912 272.911 103.744C272.635 103.576 272.323 103.492 271.987 103.492C271.639 103.492 271.327 103.576 271.051 103.744C270.775 103.912 270.547 104.14 270.391 104.44C270.235 104.74 270.151 105.064 270.151 105.424C270.151 105.784 270.235 106.108 270.391 106.396C270.547 106.696 270.763 106.924 271.039 107.08C271.315 107.248 271.627 107.332 271.975 107.332Z" fill="#0072FF"/>
        <path d="M281.467 99.004H282.871L276.595 109.816H275.191L281.467 99.004Z" fill="#0072FF"/>
        <path d="M286.723 108.496C285.967 108.496 285.259 108.316 284.623 107.956C283.999 107.596 283.495 107.104 283.111 106.48C282.739 105.856 282.559 105.16 282.559 104.404C282.559 103.648 282.751 102.952 283.123 102.328C283.495 101.704 283.999 101.212 284.635 100.852C285.271 100.492 285.967 100.312 286.723 100.312C287.455 100.312 288.115 100.48 288.703 100.804C289.303 101.128 289.771 101.572 290.119 102.136L289.159 102.844C288.883 102.4 288.535 102.064 288.127 101.836C287.719 101.596 287.251 101.476 286.735 101.476C286.195 101.476 285.715 101.608 285.271 101.86C284.839 102.112 284.503 102.46 284.251 102.904C283.999 103.348 283.879 103.852 283.879 104.404C283.879 104.956 283.999 105.46 284.251 105.904C284.503 106.348 284.839 106.708 285.271 106.96C285.715 107.212 286.195 107.332 286.735 107.332C287.251 107.332 287.719 107.212 288.127 106.984C288.535 106.744 288.883 106.408 289.159 105.964L290.119 106.672C289.783 107.236 289.315 107.68 288.715 108.004C288.127 108.328 287.455 108.496 286.723 108.496Z" fill="#0072FF"/>
        <path d="M292.819 99.364H291.559V108.364H292.819V99.364Z" fill="#0072FF"/>
        <path d="M294.643 102.472H295.903V108.364H294.643V102.472ZM295.387 99.004H296.923V99.232L295.735 101.548H294.799L295.387 99.004Z" fill="#0072FF"/>
        <path d="M300.667 102.34C301.351 102.34 301.891 102.556 302.287 102.976C302.683 103.408 302.875 103.972 302.875 104.68V108.364H301.615V104.848C301.615 104.44 301.495 104.104 301.255 103.852C301.027 103.6 300.715 103.48 300.331 103.48C299.935 103.48 299.623 103.612 299.371 103.864C299.119 104.116 298.987 104.452 298.987 104.848V108.364H297.727V102.472H298.903V103.048C299.347 102.58 299.935 102.34 300.667 102.34Z" fill="#0072FF"/>
        <path d="M304.627 102.472H305.887V108.364H304.627V102.472ZM305.263 101.104C305.023 101.104 304.819 101.02 304.651 100.864C304.483 100.708 304.399 100.504 304.399 100.276C304.399 100.048 304.483 99.844 304.651 99.688C304.819 99.52 305.023 99.436 305.263 99.436C305.491 99.436 305.695 99.52 305.863 99.688C306.031 99.844 306.115 100.048 306.115 100.276C306.115 100.504 306.031 100.708 305.863 100.864C305.695 101.02 305.491 101.104 305.263 101.104Z" fill="#0072FF"/>
        <path d="M310.459 108.496C309.883 108.496 309.355 108.364 308.887 108.088C308.407 107.812 308.035 107.44 307.759 106.972C307.483 106.504 307.339 105.976 307.339 105.412C307.339 104.848 307.483 104.32 307.759 103.852C308.035 103.384 308.407 103.024 308.887 102.748C309.367 102.472 309.895 102.34 310.459 102.34C310.999 102.34 311.491 102.46 311.923 102.7C312.343 102.952 312.691 103.288 312.943 103.708L312.055 104.404C311.635 103.804 311.107 103.504 310.471 103.504C310.123 103.504 309.799 103.588 309.523 103.756C309.247 103.924 309.019 104.152 308.863 104.44C308.707 104.74 308.623 105.064 308.623 105.412C308.623 105.772 308.707 106.096 308.863 106.384C309.019 106.684 309.247 106.912 309.523 107.08C309.799 107.248 310.123 107.332 310.471 107.332C311.095 107.332 311.623 107.032 312.055 106.444L312.943 107.128C312.679 107.548 312.331 107.884 311.899 108.124C311.479 108.376 310.999 108.496 310.459 108.496Z" fill="#0072FF"/>
        <path d="M316.603 102.34C317.335 102.34 317.911 102.556 318.355 102.976C318.799 103.396 319.015 104.008 319.015 104.8V108.364H317.839V107.704C317.623 107.956 317.359 108.16 317.035 108.292C316.711 108.424 316.351 108.496 315.955 108.496C315.343 108.496 314.839 108.34 314.467 108.028C314.095 107.716 313.903 107.308 313.903 106.792C313.903 106.276 314.095 105.868 314.491 105.568C314.887 105.268 315.415 105.112 316.075 105.112H317.743V104.728C317.743 104.32 317.635 104.008 317.419 103.792C317.191 103.576 316.879 103.468 316.483 103.468C316.159 103.468 315.859 103.54 315.607 103.684C315.355 103.828 315.103 104.044 314.851 104.344L314.119 103.6C314.419 103.18 314.779 102.856 315.199 102.652C315.619 102.448 316.087 102.34 316.603 102.34ZM316.219 107.524C316.639 107.524 316.999 107.392 317.299 107.128C317.599 106.864 317.743 106.528 317.743 106.132V106.024H316.231C315.895 106.024 315.643 106.084 315.463 106.204C315.283 106.324 315.187 106.504 315.187 106.744C315.187 106.996 315.283 107.188 315.475 107.32C315.667 107.452 315.919 107.524 316.219 107.524Z" fill="#0072FF"/>
        <path d="M326.191 99.004H327.595L321.319 109.816H319.915L326.191 99.004Z" fill="#0072FF"/>
        <path d="M248.515 115.528H249.787V118.684H253.771V115.528H255.043V123.448H253.771V119.824H249.787V123.448H248.515V115.528Z" fill="#0072FF"/>
        <path d="M259.639 123.58C259.075 123.58 258.547 123.436 258.079 123.16C257.599 122.884 257.227 122.512 256.951 122.044C256.675 121.576 256.531 121.06 256.531 120.496C256.531 119.932 256.675 119.404 256.951 118.936C257.227 118.468 257.599 118.108 258.079 117.832C258.547 117.556 259.075 117.424 259.639 117.424C260.215 117.424 260.743 117.556 261.223 117.832C261.703 118.108 262.075 118.48 262.351 118.948C262.627 119.416 262.771 119.932 262.771 120.496C262.771 121.06 262.627 121.576 262.351 122.044C262.075 122.512 261.703 122.884 261.223 123.172C260.743 123.436 260.215 123.58 259.639 123.58ZM259.639 122.416C259.987 122.416 260.299 122.332 260.575 122.164C260.851 121.996 261.079 121.768 261.235 121.468C261.391 121.18 261.475 120.856 261.475 120.508C261.475 120.148 261.391 119.824 261.235 119.524C261.079 119.224 260.851 118.996 260.575 118.828C260.299 118.66 259.987 118.576 259.651 118.576C259.303 118.576 258.991 118.66 258.715 118.828C258.439 118.996 258.211 119.224 258.055 119.524C257.899 119.824 257.815 120.148 257.815 120.508C257.815 120.868 257.899 121.192 258.055 121.48C258.211 121.78 258.427 122.008 258.703 122.164C258.979 122.332 259.291 122.416 259.639 122.416Z" fill="#0072FF"/>
        <path d="M266.035 123.58C265.531 123.58 265.075 123.472 264.667 123.268C264.259 123.064 263.923 122.788 263.659 122.44L264.379 121.648C264.631 121.924 264.895 122.128 265.171 122.272C265.435 122.416 265.723 122.488 266.035 122.488C266.311 122.488 266.539 122.428 266.719 122.32C266.899 122.212 266.983 122.044 266.983 121.828C266.983 121.648 266.911 121.516 266.779 121.42C266.647 121.324 266.443 121.216 266.155 121.096L265.555 120.844C265.039 120.628 264.643 120.388 264.391 120.136C264.139 119.884 264.019 119.548 264.019 119.128C264.019 118.6 264.211 118.18 264.607 117.88C265.003 117.58 265.495 117.424 266.095 117.424C266.947 117.424 267.619 117.724 268.135 118.336L267.451 119.116C267.271 118.924 267.055 118.78 266.815 118.672C266.575 118.564 266.323 118.516 266.071 118.516C265.819 118.516 265.627 118.564 265.483 118.66C265.339 118.756 265.267 118.9 265.267 119.08C265.267 119.236 265.327 119.356 265.435 119.452C265.555 119.548 265.759 119.656 266.047 119.776L266.611 120.004C267.175 120.232 267.583 120.484 267.835 120.76C268.087 121.024 268.219 121.36 268.219 121.78C268.219 122.344 268.015 122.788 267.595 123.112C267.175 123.424 266.659 123.58 266.035 123.58Z" fill="#0072FF"/>
        <path d="M272.899 117.424C273.451 117.424 273.943 117.556 274.387 117.82C274.831 118.096 275.167 118.456 275.419 118.924C275.671 119.404 275.791 119.92 275.791 120.496C275.791 121.084 275.671 121.612 275.419 122.08C275.167 122.536 274.831 122.908 274.387 123.184C273.943 123.448 273.451 123.58 272.899 123.58C272.503 123.58 272.131 123.508 271.783 123.352C271.447 123.208 271.159 123.004 270.931 122.728V125.608H269.671V117.556H270.847V118.384C271.063 118.084 271.351 117.844 271.711 117.676C272.071 117.508 272.467 117.424 272.899 117.424ZM272.695 122.428C273.031 122.428 273.331 122.344 273.607 122.188C273.883 122.02 274.099 121.792 274.255 121.504C274.411 121.216 274.495 120.88 274.495 120.508C274.495 120.136 274.423 119.8 274.267 119.512C274.111 119.212 273.895 118.984 273.619 118.828C273.343 118.66 273.031 118.576 272.695 118.576C272.383 118.576 272.095 118.648 271.831 118.792C271.555 118.924 271.339 119.14 271.171 119.428C271.003 119.716 270.919 120.076 270.919 120.496C270.919 120.916 271.003 121.276 271.171 121.576C271.339 121.864 271.555 122.08 271.831 122.224C272.095 122.356 272.383 122.428 272.695 122.428Z" fill="#0072FF"/>
        <path d="M277.243 117.556H278.503V123.448H277.243V117.556ZM277.879 116.188C277.639 116.188 277.435 116.104 277.267 115.948C277.099 115.792 277.015 115.588 277.015 115.36C277.015 115.132 277.099 114.928 277.267 114.772C277.435 114.604 277.639 114.52 277.879 114.52C278.107 114.52 278.311 114.604 278.479 114.772C278.647 114.928 278.731 115.132 278.731 115.36C278.731 115.588 278.647 115.792 278.479 115.948C278.311 116.104 278.107 116.188 277.879 116.188Z" fill="#0072FF"/>
        <path d="M283.831 122.38V123.448C283.435 123.532 283.087 123.58 282.787 123.58C282.103 123.58 281.575 123.412 281.191 123.076C280.807 122.728 280.615 122.212 280.615 121.528V118.648H279.655V117.556H280.615V116.008H281.887V117.556H283.639V118.648H281.887V121.42C281.887 121.792 281.983 122.056 282.187 122.212C282.379 122.368 282.667 122.44 283.051 122.44C283.231 122.44 283.483 122.416 283.831 122.38Z" fill="#0072FF"/>
        <path d="M287.371 117.424C288.103 117.424 288.679 117.64 289.123 118.06C289.567 118.48 289.783 119.092 289.783 119.884V123.448H288.607V122.788C288.391 123.04 288.127 123.244 287.803 123.376C287.479 123.508 287.119 123.58 286.723 123.58C286.111 123.58 285.607 123.424 285.235 123.112C284.863 122.8 284.671 122.392 284.671 121.876C284.671 121.36 284.863 120.952 285.259 120.652C285.655 120.352 286.183 120.196 286.843 120.196H288.511V119.812C288.511 119.404 288.403 119.092 288.187 118.876C287.959 118.66 287.647 118.552 287.251 118.552C286.927 118.552 286.627 118.624 286.375 118.768C286.123 118.912 285.871 119.128 285.619 119.428L284.887 118.684C285.187 118.264 285.547 117.94 285.967 117.736C286.387 117.532 286.855 117.424 287.371 117.424ZM286.987 122.608C287.407 122.608 287.767 122.476 288.067 122.212C288.367 121.948 288.511 121.612 288.511 121.216V121.108H286.999C286.663 121.108 286.411 121.168 286.231 121.288C286.051 121.408 285.955 121.588 285.955 121.828C285.955 122.08 286.051 122.272 286.243 122.404C286.435 122.536 286.687 122.608 286.987 122.608Z" fill="#0072FF"/>
        <path d="M292.795 114.448H291.535V123.448H292.795V114.448Z" fill="#0072FF"/>
        <path fill-rule="evenodd" clip-rule="evenodd" d="M287.664 55.0591C287.935 54.6691 288.385 54.4141 288.895 54.4141H330.679C331.506 54.4141 332.177 55.0851 332.177 55.9111C332.177 56.7381 331.506 57.4091 330.679 57.4091H292.275C290.793 56.5361 289.254 55.7511 287.664 55.0591ZM301.928 65.1591H330.679C331.506 65.1591 332.177 65.8301 332.177 66.6561C332.177 67.4831 331.506 68.1541 330.679 68.1541H304.474C303.671 67.1171 302.821 66.1171 301.928 65.1591ZM309.252 75.9041H330.679C331.506 75.9041 332.177 76.5751 332.177 77.4021C332.177 78.2281 331.506 78.8991 330.679 78.8991H310.545C310.151 77.8811 309.72 76.8821 309.252 75.9041ZM332.177 34.4211C332.177 35.2481 331.506 35.9191 330.679 35.9191H288.895C288.069 35.9191 287.398 35.2481 287.398 34.4211C287.398 33.5951 288.069 32.9241 288.895 32.9241H330.679C331.506 32.9241 332.177 33.5951 332.177 34.4211ZM332.177 45.1661C332.177 45.9931 331.506 46.6641 330.679 46.6641H288.895C288.069 46.6641 287.398 45.9931 287.398 45.1661C287.398 44.3401 288.069 43.6691 288.895 43.6691H330.679C331.506 43.6691 332.177 44.3401 332.177 45.1661Z" fill="#0072FF"/>
        <path fill-rule="evenodd" clip-rule="evenodd" d="M338.058 89.505C332.834 83.705 325.266 80.056 316.853 80.056C314.907 80.056 313.007 80.251 311.17 80.623C306.453 66.673 294.736 55.937 280.208 52.604V41.643C280.208 25.469 293.339 12.338 309.513 12.338H324.577C332.74 12.338 339.367 18.965 339.367 27.128V83.417C339.367 85.587 338.899 87.648 338.058 89.505Z" fill="black" fill-opacity="0.15" stroke="#0072FF" stroke-width="2.5" stroke-miterlimit="1.5" stroke-linecap="round" stroke-linejoin="round"/>
        <path d="M53.2981 98.822H46.8181L45.6981 101.502H44.0581L49.7781 88.082H50.3581L56.0781 101.502H54.4181L53.2981 98.822ZM50.0581 90.922L47.4181 97.422H52.6981L50.0581 90.922Z" fill="#0072FF"/>
        <path d="M61.278 101.722C60.465 101.722 59.735 101.546 59.088 101.192C58.442 100.839 57.905 100.382 57.478 99.822L58.458 98.802C58.925 99.282 59.372 99.652 59.798 99.912C60.225 100.172 60.712 100.302 61.258 100.302C61.792 100.302 62.235 100.179 62.588 99.932C62.942 99.686 63.118 99.349 63.118 98.922C63.118 98.536 62.985 98.239 62.718 98.032C62.452 97.826 62.018 97.602 61.418 97.362L60.478 96.962C59.665 96.629 59.058 96.259 58.658 95.852C58.258 95.446 58.058 94.916 58.058 94.262C58.058 93.409 58.372 92.742 58.998 92.262C59.625 91.782 60.405 91.542 61.338 91.542C62.018 91.542 62.632 91.679 63.178 91.952C63.725 92.226 64.198 92.602 64.598 93.082L63.658 94.042C63.325 93.709 62.955 93.446 62.548 93.252C62.142 93.059 61.712 92.962 61.258 92.962C60.778 92.962 60.388 93.069 60.088 93.282C59.788 93.496 59.638 93.796 59.638 94.182C59.638 94.489 59.755 94.739 59.988 94.932C60.222 95.126 60.632 95.349 61.218 95.602L62.118 95.982C63.025 96.369 63.682 96.779 64.088 97.212C64.495 97.646 64.698 98.196 64.698 98.862C64.698 99.769 64.368 100.472 63.708 100.972C63.048 101.472 62.238 101.722 61.278 101.722Z" fill="#0072FF"/>
        <path d="M70.3581 101.722C69.5451 101.722 68.8151 101.546 68.1681 101.192C67.5221 100.839 66.9851 100.382 66.5581 99.822L67.5381 98.802C68.0051 99.282 68.4521 99.652 68.8781 99.912C69.3051 100.172 69.7921 100.302 70.3381 100.302C70.8721 100.302 71.3151 100.179 71.6681 99.932C72.0221 99.686 72.1981 99.349 72.1981 98.922C72.1981 98.536 72.0651 98.239 71.7981 98.032C71.5321 97.826 71.0981 97.602 70.4981 97.362L69.5581 96.962C68.7451 96.629 68.1381 96.259 67.7381 95.852C67.3381 95.446 67.1381 94.916 67.1381 94.262C67.1381 93.409 67.4521 92.742 68.0781 92.262C68.7051 91.782 69.4851 91.542 70.4181 91.542C71.0981 91.542 71.7121 91.679 72.2581 91.952C72.8051 92.226 73.2781 92.602 73.6781 93.082L72.7381 94.042C72.4051 93.709 72.0351 93.446 71.6281 93.252C71.2221 93.059 70.7921 92.962 70.3381 92.962C69.8581 92.962 69.4681 93.069 69.1681 93.282C68.8681 93.496 68.7181 93.796 68.7181 94.182C68.7181 94.489 68.8351 94.739 69.0681 94.932C69.3021 95.126 69.7121 95.349 70.2981 95.602L71.1981 95.982C72.1051 96.369 72.7621 96.779 73.1681 97.212C73.5751 97.646 73.7781 98.196 73.7781 98.862C73.7781 99.769 73.4481 100.472 72.7881 100.972C72.1281 101.472 71.3181 101.722 70.3581 101.722Z" fill="#0072FF"/>
        <path d="M76.558 91.762H78.098V101.502H76.558V91.762ZM77.338 89.162C77.018 89.162 76.745 89.056 76.518 88.842C76.292 88.629 76.178 88.362 76.178 88.042C76.178 87.736 76.292 87.472 76.518 87.252C76.745 87.032 77.018 86.922 77.338 86.922C77.645 86.922 77.912 87.032 78.138 87.252C78.365 87.472 78.478 87.736 78.478 88.042C78.478 88.362 78.368 88.629 78.148 88.842C77.928 89.056 77.658 89.162 77.338 89.162Z" fill="#0072FF"/>
        <path d="M85.918 91.542C87.052 91.542 87.938 91.896 88.578 92.602C89.218 93.309 89.538 94.236 89.538 95.382V101.502H87.998V95.562C87.998 94.789 87.782 94.162 87.348 93.682C86.915 93.202 86.325 92.962 85.578 92.962C84.832 92.962 84.218 93.206 83.738 93.692C83.258 94.179 83.018 94.802 83.018 95.562V101.502H81.478V91.762H82.918V92.802C83.278 92.402 83.715 92.092 84.228 91.872C84.742 91.652 85.305 91.542 85.918 91.542Z" fill="#0072FF"/>
        <path d="M96.298 91.542C97.445 91.542 98.365 91.882 99.058 92.562C99.752 93.242 100.098 94.222 100.098 95.502V101.502H98.658V100.242C98.298 100.722 97.838 101.089 97.278 101.342C96.718 101.596 96.085 101.722 95.378 101.722C94.378 101.722 93.562 101.476 92.928 100.982C92.295 100.489 91.978 99.822 91.978 98.982C91.978 98.156 92.298 97.496 92.938 97.002C93.578 96.509 94.425 96.262 95.478 96.262H98.558V95.422C98.558 94.622 98.348 94.012 97.928 93.592C97.508 93.172 96.932 92.962 96.198 92.962C95.612 92.962 95.092 93.092 94.638 93.352C94.185 93.612 93.758 94.002 93.358 94.522L92.338 93.682C92.778 92.962 93.345 92.426 94.038 92.072C94.732 91.719 95.485 91.542 96.298 91.542ZM95.578 100.442C96.112 100.442 96.605 100.326 97.058 100.092C97.512 99.859 97.875 99.536 98.148 99.122C98.422 98.709 98.558 98.256 98.558 97.762V97.522H95.658C94.978 97.522 94.458 97.639 94.098 97.872C93.738 98.106 93.558 98.449 93.558 98.902C93.558 99.396 93.752 99.776 94.138 100.042C94.525 100.309 95.005 100.442 95.578 100.442Z" fill="#0072FF"/>
        <path d="M108.538 91.762V93.122H107.958C107.412 93.122 106.905 93.236 106.438 93.462C105.972 93.689 105.598 94.016 105.318 94.442C105.038 94.869 104.898 95.382 104.898 95.982V101.502H103.358V91.762H104.798V93.142C105.145 92.676 105.588 92.316 106.128 92.062C106.668 91.809 107.232 91.682 107.818 91.682C108.032 91.682 108.272 91.709 108.538 91.762Z" fill="#0072FF"/>
        <path fill-rule="evenodd" clip-rule="evenodd" d="M33.274 86.0041C33.274 81.4131 29.547 77.6851 24.956 77.6851H8.319C3.727 77.6851 0 81.4131 0 86.0041V102.641C0 107.232 3.727 110.959 8.319 110.959H24.956C29.547 110.959 33.274 107.232 33.274 102.641V86.0041Z" fill="#808080" fill-opacity="0.5"/>
        <path fill-rule="evenodd" clip-rule="evenodd" d="M7.01008 92.2691L12.4861 97.2711L26.2891 85.6081C26.6291 85.3211 27.1321 85.3451 27.4431 85.6641C27.7531 85.9821 27.7641 86.4871 27.4691 86.8191L13.0981 102.953C12.9211 103.152 12.6611 103.256 12.3961 103.234C12.1311 103.213 11.8921 103.068 11.7491 102.844L5.72308 93.3491C5.49508 92.9911 5.56808 92.5191 5.89408 92.2461C6.21908 91.9731 6.69608 91.9831 7.01008 92.2691Z" fill="#808080"/>
        <path fill-rule="evenodd" clip-rule="evenodd" d="M166.922 86.822L181.922 94.322L166.922 101.822C170.672 98.072 170.672 90.572 166.922 86.822Z" fill="#808080"/>
        <path d="M121.535 94.322H169.922" stroke="#808080" stroke-width="2.5" stroke-miterlimit="1.5" stroke-linecap="round" stroke-linejoin="round"/>
        <path fill-rule="evenodd" clip-rule="evenodd" d="M374.956 101.822L359.956 94.322L374.956 86.822C371.206 90.572 371.206 98.072 374.956 101.822Z" fill="#808080"/>
        <path d="M420.342 94.322H371.956" stroke="#808080" stroke-width="2.5" stroke-miterlimit="1.5" stroke-linecap="round" stroke-linejoin="round"/>
        <path fill-rule="evenodd" clip-rule="evenodd" d="M369.196 143.836L359.956 129.841L376.696 130.846C371.573 132.218 367.823 138.713 369.196 143.836Z" fill="#808080"/>
        <path d="M412.252 160.034C412.252 160.034 385.599 144.646 370.348 135.841" stroke="#808080" stroke-width="2.5" stroke-miterlimit="1.5" stroke-linecap="round" stroke-linejoin="round"/>
        <path fill-rule="evenodd" clip-rule="evenodd" d="M376.696 57.799L359.956 58.804L369.196 44.809C367.823 49.931 371.573 56.427 376.696 57.799Z" fill="#808080"/>
        <path d="M412.252 28.611C412.252 28.611 385.599 43.999 370.348 52.804" stroke="#808080" stroke-width="2.5" stroke-miterlimit="1.5" stroke-linecap="round" stroke-linejoin="round"/>
        <path d="M430.031 33.356H432.923C433.451 33.356 433.919 33.458 434.327 33.662C434.735 33.866 435.051 34.152 435.275 34.52C435.499 34.888 435.611 35.308 435.611 35.78C435.611 36.252 435.499 36.672 435.275 37.04C435.051 37.408 434.735 37.696 434.327 37.904C433.919 38.112 433.451 38.216 432.923 38.216H431.303V41.276H430.031V33.356ZM432.899 37.088C433.347 37.088 433.693 36.97 433.937 36.734C434.181 36.498 434.303 36.184 434.303 35.792C434.303 35.4 434.181 35.084 433.937 34.844C433.693 34.604 433.347 34.484 432.899 34.484H431.303V37.088H432.899Z" fill="#0072FF"/>
        <path d="M439.079 35.252C439.807 35.252 440.391 35.464 440.831 35.888C441.271 36.312 441.491 36.92 441.491 37.712V41.276H440.315V40.616C440.099 40.872 439.831 41.068 439.511 41.204C439.191 41.34 438.831 41.408 438.431 41.408C437.815 41.408 437.319 41.252 436.943 40.94C436.567 40.628 436.379 40.216 436.379 39.704C436.379 39.192 436.575 38.784 436.967 38.48C437.359 38.176 437.887 38.024 438.551 38.024H440.219V37.64C440.219 37.232 440.109 36.92 439.889 36.704C439.669 36.488 439.359 36.38 438.959 36.38C438.631 36.38 438.339 36.452 438.083 36.596C437.827 36.74 437.575 36.96 437.327 37.256L436.595 36.512C436.891 36.088 437.251 35.772 437.675 35.564C438.099 35.356 438.567 35.252 439.079 35.252ZM438.695 40.436C439.119 40.436 439.479 40.304 439.775 40.04C440.071 39.776 440.219 39.444 440.219 39.044V38.936H438.707C438.371 38.936 438.113 38.996 437.933 39.116C437.753 39.236 437.663 39.416 437.663 39.656C437.663 39.904 437.759 40.096 437.951 40.232C438.143 40.368 438.391 40.436 438.695 40.436Z" fill="#0072FF"/>
        <path d="M445.991 41.408C445.415 41.408 444.889 41.272 444.413 41C443.937 40.728 443.561 40.356 443.285 39.884C443.009 39.412 442.871 38.892 442.871 38.324C442.871 37.756 443.009 37.238 443.285 36.77C443.561 36.302 443.939 35.932 444.419 35.66C444.899 35.388 445.423 35.252 445.991 35.252C446.535 35.252 447.021 35.374 447.449 35.618C447.877 35.862 448.219 36.196 448.475 36.62L447.587 37.316C447.163 36.716 446.635 36.416 446.003 36.416C445.651 36.416 445.335 36.5 445.055 36.668C444.775 36.836 444.555 37.066 444.395 37.358C444.235 37.65 444.155 37.972 444.155 38.324C444.155 38.684 444.235 39.01 444.395 39.302C444.555 39.594 444.775 39.824 445.055 39.992C445.335 40.16 445.651 40.244 446.003 40.244C446.627 40.244 447.155 39.948 447.587 39.356L448.475 40.04C448.211 40.464 447.865 40.798 447.437 41.042C447.009 41.286 446.527 41.408 445.991 41.408Z" fill="#0072FF"/>
        <path d="M449.867 35.384H451.127V41.276H449.867V35.384ZM450.503 34.016C450.263 34.016 450.059 33.936 449.891 33.776C449.723 33.616 449.639 33.42 449.639 33.188C449.639 32.956 449.723 32.758 449.891 32.594C450.059 32.43 450.263 32.348 450.503 32.348C450.735 32.348 450.935 32.43 451.103 32.594C451.271 32.758 451.355 32.956 451.355 33.188C451.355 33.42 451.271 33.616 451.103 33.776C450.935 33.936 450.735 34.016 450.503 34.016Z" fill="#0072FF"/>
        <path d="M458.255 38.744H453.863C453.943 39.224 454.157 39.602 454.505 39.878C454.853 40.154 455.279 40.292 455.783 40.292C456.399 40.292 456.971 40.06 457.499 39.596L458.099 40.46C457.427 41.092 456.643 41.408 455.747 41.408C455.147 41.408 454.607 41.274 454.127 41.006C453.647 40.738 453.269 40.37 452.993 39.902C452.717 39.434 452.579 38.912 452.579 38.336C452.579 37.768 452.713 37.248 452.981 36.776C453.249 36.304 453.617 35.932 454.085 35.66C454.553 35.388 455.067 35.252 455.627 35.252C456.147 35.252 456.613 35.37 457.025 35.606C457.437 35.842 457.761 36.164 457.997 36.572C458.233 36.98 458.351 37.44 458.351 37.952C458.351 38.2 458.319 38.464 458.255 38.744ZM455.579 36.32C455.163 36.32 454.801 36.45 454.493 36.71C454.185 36.97 453.983 37.32 453.887 37.76H457.091C457.083 37.312 456.933 36.96 456.641 36.704C456.349 36.448 455.995 36.32 455.579 36.32Z" fill="#0072FF"/>
        <path d="M462.731 35.252C463.419 35.252 463.959 35.466 464.351 35.894C464.743 36.322 464.939 36.888 464.939 37.592V41.276H463.679V37.76C463.679 37.352 463.561 37.022 463.325 36.77C463.089 36.518 462.779 36.392 462.395 36.392C462.003 36.392 461.681 36.52 461.429 36.776C461.177 37.032 461.051 37.36 461.051 37.76V41.276H459.791V35.384H460.967V35.96C461.415 35.488 462.003 35.252 462.731 35.252Z" fill="#0072FF"/>
        <path d="M470.195 40.2079V41.2759C469.803 41.3639 469.455 41.4079 469.151 41.4079C468.471 41.4079 467.939 41.2379 467.555 40.8979C467.171 40.5579 466.979 40.0439 466.979 39.3559V36.4759H466.019V35.3839H466.979V33.8359H468.251V35.3839H470.003V36.4759H468.251V39.2479C468.251 39.6239 468.349 39.8879 468.545 40.0399C468.741 40.1919 469.031 40.2679 469.415 40.2679C469.591 40.2679 469.851 40.2479 470.195 40.2079Z" fill="#0072FF"/>
        <path d="M476.651 38.744H472.259C472.339 39.224 472.553 39.602 472.901 39.878C473.249 40.154 473.675 40.292 474.179 40.292C474.795 40.292 475.367 40.06 475.895 39.596L476.495 40.46C475.823 41.092 475.039 41.408 474.143 41.408C473.543 41.408 473.003 41.274 472.523 41.006C472.043 40.738 471.665 40.37 471.389 39.902C471.113 39.434 470.975 38.912 470.975 38.336C470.975 37.768 471.109 37.248 471.377 36.776C471.645 36.304 472.013 35.932 472.481 35.66C472.949 35.388 473.463 35.252 474.023 35.252C474.543 35.252 475.009 35.37 475.421 35.606C475.833 35.842 476.157 36.164 476.393 36.572C476.629 36.98 476.747 37.44 476.747 37.952C476.747 38.2 476.715 38.464 476.651 38.744ZM473.975 36.32C473.559 36.32 473.197 36.45 472.889 36.71C472.581 36.97 472.379 37.32 472.283 37.76H475.487C475.479 37.312 475.329 36.96 475.037 36.704C474.745 36.448 474.391 36.32 473.975 36.32Z" fill="#0072FF"/>
        <path d="M453.168 12.446C456.26 12.446 458.766 9.93969 458.766 6.848C458.766 3.75631 456.26 1.25 453.168 1.25C450.076 1.25 447.57 3.75631 447.57 6.848C447.57 9.93969 450.076 12.446 453.168 12.446Z" fill="black" fill-opacity="0.15" stroke="#0072FF" stroke-width="2.5" stroke-miterlimit="1.5" stroke-linecap="round" stroke-linejoin="round"/>
        <path fill-rule="evenodd" clip-rule="evenodd" d="M446.018 13.8831C447.839 15.7331 450.37 16.8801 453.168 16.8801C455.961 16.8801 458.49 15.7361 460.309 13.8911C463.074 15.1871 464.99 17.9951 464.99 21.2481V21.9861C464.99 25.2461 462.344 27.8921 459.085 27.8921H447.225C443.966 27.8921 441.32 25.2461 441.32 21.9861V21.2481C441.32 17.9881 443.244 15.1751 446.018 13.8831Z" fill="black" fill-opacity="0.15" stroke="#0072FF" stroke-width="2.5" stroke-miterlimit="1.5" stroke-linecap="round" stroke-linejoin="round"/>
        <path d="M419.417 179.474H422.309C422.837 179.474 423.305 179.576 423.713 179.78C424.121 179.984 424.437 180.27 424.661 180.638C424.885 181.006 424.997 181.426 424.997 181.898C424.997 182.37 424.885 182.79 424.661 183.158C424.437 183.526 424.121 183.814 423.713 184.022C423.305 184.23 422.837 184.334 422.309 184.334H420.689V187.394H419.417V179.474ZM422.285 183.206C422.733 183.206 423.079 183.088 423.323 182.852C423.567 182.616 423.689 182.302 423.689 181.91C423.689 181.518 423.567 181.202 423.323 180.962C423.079 180.722 422.733 180.602 422.285 180.602H420.689V183.206H422.285Z" fill="#0072FF"/>
        <path d="M429.689 181.502V182.618H429.305C428.809 182.618 428.397 182.76 428.069 183.044C427.741 183.328 427.577 183.73 427.577 184.25V187.394H426.317V181.502H427.493V182.27C427.701 182.006 427.955 181.802 428.255 181.658C428.555 181.514 428.873 181.442 429.209 181.442C429.385 181.442 429.545 181.462 429.689 181.502Z" fill="#0072FF"/>
        <path d="M433.433 187.526C432.865 187.526 432.343 187.388 431.867 187.112C431.391 186.836 431.015 186.462 430.739 185.99C430.463 185.518 430.325 185.002 430.325 184.442C430.325 183.874 430.463 183.356 430.739 182.888C431.015 182.42 431.391 182.05 431.867 181.778C432.343 181.506 432.865 181.37 433.433 181.37C434.009 181.37 434.537 181.506 435.017 181.778C435.497 182.05 435.875 182.422 436.151 182.894C436.427 183.366 436.565 183.882 436.565 184.442C436.565 185.002 436.427 185.518 436.151 185.99C435.875 186.462 435.497 186.836 435.017 187.112C434.537 187.388 434.009 187.526 433.433 187.526ZM433.433 186.362C433.777 186.362 434.089 186.278 434.369 186.11C434.649 185.942 434.869 185.712 435.029 185.42C435.189 185.128 435.269 184.806 435.269 184.454C435.269 184.094 435.189 183.766 435.029 183.47C434.869 183.174 434.649 182.942 434.369 182.774C434.089 182.606 433.781 182.522 433.445 182.522C433.101 182.522 432.789 182.606 432.509 182.774C432.229 182.942 432.009 183.174 431.849 183.47C431.689 183.766 431.609 184.094 431.609 184.454C431.609 184.814 431.689 185.14 431.849 185.432C432.009 185.724 432.227 185.952 432.503 186.116C432.779 186.28 433.089 186.362 433.433 186.362Z" fill="#0072FF"/>
        <path d="M440.753 187.526C440.177 187.526 439.651 187.39 439.175 187.118C438.699 186.846 438.323 186.474 438.047 186.002C437.771 185.53 437.633 185.01 437.633 184.442C437.633 183.874 437.771 183.356 438.047 182.888C438.323 182.42 438.701 182.05 439.181 181.778C439.661 181.506 440.185 181.37 440.753 181.37C441.297 181.37 441.783 181.492 442.211 181.736C442.639 181.98 442.981 182.314 443.237 182.738L442.349 183.434C441.925 182.834 441.397 182.534 440.765 182.534C440.413 182.534 440.097 182.618 439.817 182.786C439.537 182.954 439.317 183.184 439.157 183.476C438.997 183.768 438.917 184.09 438.917 184.442C438.917 184.802 438.997 185.128 439.157 185.42C439.317 185.712 439.537 185.942 439.817 186.11C440.097 186.278 440.413 186.362 440.765 186.362C441.389 186.362 441.917 186.066 442.349 185.474L443.237 186.158C442.973 186.582 442.627 186.916 442.199 187.16C441.771 187.404 441.289 187.526 440.753 187.526Z" fill="#0072FF"/>
        <path d="M449.813 184.862H445.421C445.501 185.342 445.715 185.72 446.063 185.996C446.411 186.272 446.837 186.41 447.341 186.41C447.957 186.41 448.529 186.178 449.057 185.714L449.657 186.578C448.985 187.21 448.201 187.526 447.305 187.526C446.705 187.526 446.165 187.392 445.685 187.124C445.205 186.856 444.827 186.488 444.551 186.02C444.275 185.552 444.137 185.03 444.137 184.454C444.137 183.886 444.271 183.366 444.539 182.894C444.807 182.422 445.175 182.05 445.643 181.778C446.111 181.506 446.625 181.37 447.185 181.37C447.705 181.37 448.171 181.488 448.583 181.724C448.995 181.96 449.319 182.282 449.555 182.69C449.791 183.098 449.909 183.558 449.909 184.07C449.909 184.318 449.877 184.582 449.813 184.862ZM447.137 182.438C446.721 182.438 446.359 182.568 446.051 182.828C445.743 183.088 445.541 183.438 445.445 183.878H448.649C448.641 183.43 448.491 183.078 448.199 182.822C447.907 182.566 447.553 182.438 447.137 182.438Z" fill="#0072FF"/>
        <path d="M457.097 178.394V187.394H455.921V186.554C455.705 186.858 455.417 187.096 455.057 187.268C454.697 187.44 454.297 187.526 453.857 187.526C453.305 187.526 452.811 187.392 452.375 187.124C451.939 186.856 451.597 186.488 451.349 186.02C451.101 185.552 450.977 185.03 450.977 184.454C450.977 183.878 451.101 183.354 451.349 182.882C451.597 182.41 451.941 182.04 452.381 181.772C452.821 181.504 453.313 181.37 453.857 181.37C454.265 181.37 454.639 181.444 454.979 181.592C455.319 181.74 455.601 181.95 455.825 182.222V178.394H457.097ZM454.073 186.374C454.385 186.374 454.675 186.304 454.943 186.164C455.211 186.024 455.429 185.81 455.597 185.522C455.765 185.234 455.849 184.878 455.849 184.454C455.849 184.03 455.765 183.674 455.597 183.386C455.429 183.098 455.209 182.882 454.937 182.738C454.665 182.594 454.377 182.522 454.073 182.522C453.737 182.522 453.431 182.604 453.155 182.768C452.879 182.932 452.661 183.158 452.501 183.446C452.341 183.734 452.261 184.066 452.261 184.442C452.261 184.818 452.339 185.152 452.495 185.444C452.651 185.736 452.867 185.964 453.143 186.128C453.419 186.292 453.729 186.374 454.073 186.374Z" fill="#0072FF"/>
        <path d="M464.225 184.862H459.833C459.913 185.342 460.127 185.72 460.475 185.996C460.823 186.272 461.249 186.41 461.753 186.41C462.369 186.41 462.941 186.178 463.469 185.714L464.069 186.578C463.397 187.21 462.613 187.526 461.717 187.526C461.117 187.526 460.577 187.392 460.097 187.124C459.617 186.856 459.239 186.488 458.963 186.02C458.687 185.552 458.549 185.03 458.549 184.454C458.549 183.886 458.683 183.366 458.951 182.894C459.219 182.422 459.587 182.05 460.055 181.778C460.523 181.506 461.037 181.37 461.597 181.37C462.117 181.37 462.583 181.488 462.995 181.724C463.407 181.96 463.731 182.282 463.967 182.69C464.203 183.098 464.321 183.558 464.321 184.07C464.321 184.318 464.289 184.582 464.225 184.862ZM461.549 182.438C461.133 182.438 460.771 182.568 460.463 182.828C460.155 183.088 459.953 183.438 459.857 183.878H463.061C463.053 183.43 462.903 183.078 462.611 182.822C462.319 182.566 461.965 182.438 461.549 182.438ZM462.665 180.578L461.585 179.27L460.493 180.578H459.545L461.177 178.034H461.981L463.601 180.578H462.665Z" fill="#0072FF"/>
        <path d="M468.701 181.37C469.389 181.37 469.929 181.584 470.321 182.012C470.713 182.44 470.909 183.006 470.909 183.71V187.394H469.649V183.878C469.649 183.47 469.531 183.14 469.295 182.888C469.059 182.636 468.749 182.51 468.365 182.51C467.973 182.51 467.651 182.638 467.399 182.894C467.147 183.15 467.021 183.478 467.021 183.878V187.394H465.761V181.502H466.937V182.078C467.385 181.606 467.973 181.37 468.701 181.37Z" fill="#0072FF"/>
        <path d="M475.409 187.526C474.833 187.526 474.307 187.39 473.831 187.118C473.355 186.846 472.979 186.474 472.703 186.002C472.427 185.53 472.289 185.01 472.289 184.442C472.289 183.874 472.427 183.356 472.703 182.888C472.979 182.42 473.357 182.05 473.837 181.778C474.317 181.506 474.841 181.37 475.409 181.37C475.953 181.37 476.439 181.492 476.867 181.736C477.295 181.98 477.637 182.314 477.893 182.738L477.005 183.434C476.581 182.834 476.053 182.534 475.421 182.534C475.069 182.534 474.753 182.618 474.473 182.786C474.193 182.954 473.973 183.184 473.813 183.476C473.653 183.768 473.573 184.09 473.573 184.442C473.573 184.802 473.653 185.128 473.813 185.42C473.973 185.712 474.193 185.942 474.473 186.11C474.753 186.278 475.069 186.362 475.421 186.362C476.045 186.362 476.573 186.066 477.005 185.474L477.893 186.158C477.629 186.582 477.283 186.916 476.855 187.16C476.427 187.404 475.945 187.526 475.409 187.526Z" fill="#0072FF"/>
        <path d="M479.285 181.502H480.545V187.394H479.285V181.502ZM479.921 180.134C479.681 180.134 479.477 180.054 479.309 179.894C479.141 179.734 479.057 179.538 479.057 179.306C479.057 179.074 479.141 178.876 479.309 178.712C479.477 178.548 479.681 178.466 479.921 178.466C480.153 178.466 480.353 178.548 480.521 178.712C480.689 178.876 480.773 179.074 480.773 179.306C480.773 179.538 480.689 179.734 480.521 179.894C480.353 180.054 480.153 180.134 479.921 180.134Z" fill="#0072FF"/>
        <path d="M484.637 181.37C485.365 181.37 485.949 181.582 486.389 182.006C486.829 182.43 487.049 183.038 487.049 183.83V187.394H485.873V186.734C485.657 186.99 485.389 187.186 485.069 187.322C484.749 187.458 484.389 187.526 483.989 187.526C483.373 187.526 482.877 187.37 482.501 187.058C482.125 186.746 481.937 186.334 481.937 185.822C481.937 185.31 482.133 184.902 482.525 184.598C482.917 184.294 483.445 184.142 484.109 184.142H485.777V183.758C485.777 183.35 485.667 183.038 485.447 182.822C485.227 182.606 484.917 182.498 484.517 182.498C484.189 182.498 483.897 182.57 483.641 182.714C483.385 182.858 483.133 183.078 482.885 183.374L482.153 182.63C482.449 182.206 482.809 181.89 483.233 181.682C483.657 181.474 484.125 181.37 484.637 181.37ZM484.253 186.554C484.677 186.554 485.037 186.422 485.333 186.158C485.629 185.894 485.777 185.562 485.777 185.162V185.054H484.265C483.929 185.054 483.671 185.114 483.491 185.234C483.311 185.354 483.221 185.534 483.221 185.774C483.221 186.022 483.317 186.214 483.509 186.35C483.701 186.486 483.949 186.554 484.253 186.554Z" fill="#0072FF"/>
        <path d="M453.432 158.564C456.524 158.564 459.03 156.058 459.03 152.966C459.03 149.874 456.524 147.368 453.432 147.368C450.34 147.368 447.834 149.874 447.834 152.966C447.834 156.058 450.34 158.564 453.432 158.564Z" fill="black" fill-opacity="0.15" stroke="#0072FF" stroke-width="2.5" stroke-miterlimit="1.5" stroke-linecap="round" stroke-linejoin="round"/>
        <path fill-rule="evenodd" clip-rule="evenodd" d="M446.282 160C448.103 161.85 450.634 162.998 453.432 162.998C456.225 162.998 458.754 161.854 460.573 160.009C463.338 161.305 465.254 164.113 465.254 167.366V168.104C465.254 171.363 462.608 174.009 459.349 174.009H447.489C444.23 174.009 441.584 171.363 441.584 168.104V167.366C441.584 164.106 443.508 161.293 446.282 160Z" fill="black" fill-opacity="0.15" stroke="#0072FF" stroke-width="2.5" stroke-miterlimit="1.5" stroke-linecap="round" stroke-linejoin="round"/>
        <path d="M441.293 100.538V108.59H440.021V103.622L437.753 106.598H437.321L435.041 103.61V108.59H433.769V100.538H434.213L437.537 104.966L440.861 100.538H441.293Z" fill="#0072FF"/>
        <path d="M448.445 106.058H444.053C444.137 106.538 444.341 106.922 444.689 107.186C445.037 107.462 445.469 107.606 445.973 107.606C446.585 107.606 447.161 107.378 447.689 106.91L448.289 107.774C447.617 108.41 446.837 108.722 445.937 108.722C445.337 108.722 444.797 108.59 444.317 108.314C443.837 108.05 443.465 107.678 443.189 107.21C442.913 106.742 442.769 106.226 442.769 105.65C442.769 105.086 442.901 104.558 443.177 104.09C443.441 103.622 443.813 103.25 444.281 102.974C444.749 102.698 445.253 102.566 445.817 102.566C446.333 102.566 446.801 102.686 447.221 102.914C447.629 103.154 447.953 103.478 448.193 103.886C448.421 104.294 448.541 104.75 448.541 105.266C448.541 105.518 448.505 105.782 448.445 106.058ZM445.769 103.634C445.349 103.634 444.989 103.766 444.677 104.018C444.377 104.282 444.173 104.63 444.077 105.074H447.281C447.269 104.63 447.125 104.27 446.825 104.018C446.537 103.766 446.189 103.634 445.769 103.634ZM446.285 99.23H447.821V99.458L446.273 101.774H445.337L446.285 99.23Z" fill="#0072FF"/>
        <path d="M455.729 99.59V108.59H454.553V107.75C454.337 108.05 454.049 108.29 453.689 108.47C453.329 108.638 452.933 108.722 452.489 108.722C451.937 108.722 451.445 108.59 451.001 108.326C450.569 108.05 450.233 107.69 449.981 107.21C449.729 106.754 449.609 106.226 449.609 105.65C449.609 105.074 449.729 104.546 449.981 104.078C450.233 103.61 450.569 103.238 451.013 102.962C451.457 102.698 451.949 102.566 452.489 102.566C452.897 102.566 453.269 102.638 453.605 102.794C453.953 102.938 454.229 103.142 454.457 103.418V99.59H455.729ZM452.705 107.57C453.017 107.57 453.305 107.498 453.569 107.354C453.845 107.222 454.061 107.006 454.229 106.718C454.397 106.43 454.481 106.07 454.481 105.65C454.481 105.23 454.397 104.87 454.229 104.582C454.061 104.294 453.845 104.078 453.569 103.934C453.293 103.79 453.005 103.718 452.705 103.718C452.369 103.718 452.057 103.802 451.781 103.958C451.505 104.126 451.289 104.354 451.133 104.642C450.977 104.93 450.893 105.266 450.893 105.638C450.893 106.01 450.965 106.346 451.121 106.634C451.277 106.934 451.493 107.162 451.769 107.318C452.045 107.486 452.357 107.57 452.705 107.57Z" fill="#0072FF"/>
        <path d="M457.553 102.698H458.813V108.59H457.553V102.698ZM458.189 101.33C457.949 101.33 457.745 101.246 457.577 101.09C457.409 100.934 457.325 100.73 457.325 100.502C457.325 100.274 457.409 100.07 457.577 99.914C457.745 99.746 457.949 99.662 458.189 99.662C458.417 99.662 458.621 99.746 458.789 99.914C458.957 100.07 459.041 100.274 459.041 100.502C459.041 100.73 458.957 100.934 458.789 101.09C458.621 101.246 458.417 101.33 458.189 101.33Z" fill="#0072FF"/>
        <path d="M463.385 108.722C462.809 108.722 462.281 108.59 461.813 108.314C461.333 108.038 460.961 107.666 460.685 107.198C460.409 106.73 460.265 106.202 460.265 105.638C460.265 105.074 460.409 104.546 460.685 104.078C460.961 103.61 461.333 103.25 461.813 102.974C462.293 102.698 462.821 102.566 463.385 102.566C463.925 102.566 464.417 102.686 464.849 102.926C465.269 103.178 465.617 103.514 465.869 103.934L464.981 104.63C464.561 104.03 464.033 103.73 463.397 103.73C463.049 103.73 462.725 103.814 462.449 103.982C462.173 104.15 461.945 104.378 461.789 104.666C461.633 104.966 461.549 105.29 461.549 105.638C461.549 105.998 461.633 106.322 461.789 106.61C461.945 106.91 462.173 107.138 462.449 107.306C462.725 107.474 463.049 107.558 463.397 107.558C464.021 107.558 464.549 107.258 464.981 106.67L465.869 107.354C465.605 107.774 465.257 108.11 464.825 108.35C464.405 108.602 463.925 108.722 463.385 108.722Z" fill="#0072FF"/>
        <path d="M469.877 108.722C469.313 108.722 468.785 108.578 468.317 108.302C467.837 108.026 467.465 107.654 467.189 107.186C466.913 106.718 466.769 106.202 466.769 105.638C466.769 105.074 466.913 104.546 467.189 104.078C467.465 103.61 467.837 103.25 468.317 102.974C468.785 102.698 469.313 102.566 469.877 102.566C470.453 102.566 470.981 102.698 471.461 102.974C471.941 103.25 472.313 103.622 472.589 104.09C472.865 104.558 473.009 105.074 473.009 105.638C473.009 106.202 472.865 106.718 472.589 107.186C472.313 107.654 471.941 108.026 471.461 108.314C470.981 108.578 470.453 108.722 469.877 108.722ZM469.877 107.558C470.225 107.558 470.537 107.474 470.813 107.306C471.089 107.138 471.317 106.91 471.473 106.61C471.629 106.322 471.713 105.998 471.713 105.65C471.713 105.29 471.629 104.966 471.473 104.666C471.317 104.366 471.089 104.138 470.813 103.97C470.537 103.802 470.225 103.718 469.889 103.718C469.541 103.718 469.229 103.802 468.953 103.97C468.677 104.138 468.449 104.366 468.293 104.666C468.137 104.966 468.053 105.29 468.053 105.65C468.053 106.01 468.137 106.334 468.293 106.622C468.449 106.922 468.665 107.15 468.941 107.306C469.217 107.474 469.529 107.558 469.877 107.558Z" fill="#0072FF"/>
        <path d="M424.193 123.674L421.937 120.614H420.485V123.674H419.213V115.754H422.105C422.633 115.754 423.101 115.85 423.509 116.054C423.917 116.258 424.229 116.546 424.457 116.918C424.685 117.29 424.793 117.71 424.793 118.178C424.793 118.694 424.661 119.15 424.385 119.546C424.109 119.942 423.737 120.23 423.269 120.41L425.645 123.674H424.193ZM420.485 119.486H422.081C422.525 119.486 422.861 119.366 423.113 119.126C423.365 118.886 423.485 118.574 423.485 118.19C423.485 117.794 423.365 117.482 423.113 117.242C422.861 117.002 422.525 116.882 422.081 116.882H420.485V119.486Z" fill="#0072FF"/>
        <path d="M431.825 121.142H427.433C427.517 121.622 427.721 122.006 428.069 122.27C428.417 122.546 428.849 122.69 429.353 122.69C429.965 122.69 430.541 122.462 431.069 121.994L431.669 122.858C430.997 123.494 430.217 123.806 429.317 123.806C428.717 123.806 428.177 123.674 427.697 123.398C427.217 123.134 426.845 122.762 426.569 122.294C426.293 121.826 426.149 121.31 426.149 120.734C426.149 120.17 426.281 119.642 426.557 119.174C426.821 118.706 427.193 118.334 427.661 118.058C428.129 117.782 428.633 117.65 429.197 117.65C429.713 117.65 430.181 117.77 430.601 117.998C431.009 118.238 431.333 118.562 431.573 118.97C431.801 119.378 431.921 119.834 431.921 120.35C431.921 120.602 431.885 120.866 431.825 121.142ZM429.149 118.718C428.729 118.718 428.369 118.85 428.057 119.102C427.757 119.366 427.553 119.714 427.457 120.158H430.661C430.649 119.714 430.505 119.354 430.205 119.102C429.917 118.85 429.569 118.718 429.149 118.718Z" fill="#0072FF"/>
        <path d="M439.109 117.782V125.834H437.837V122.966C437.609 123.242 437.333 123.446 436.985 123.59C436.649 123.734 436.277 123.806 435.869 123.806C435.329 123.806 434.837 123.674 434.393 123.398C433.949 123.134 433.613 122.762 433.361 122.294C433.109 121.826 432.989 121.31 432.989 120.722C432.989 120.146 433.109 119.618 433.361 119.15C433.613 118.694 433.949 118.322 434.381 118.046C434.825 117.782 435.317 117.65 435.869 117.65C436.313 117.65 436.709 117.734 437.069 117.914C437.429 118.082 437.717 118.322 437.933 118.622V117.782H439.109ZM436.085 122.654C436.385 122.654 436.673 122.582 436.949 122.438C437.225 122.294 437.441 122.078 437.609 121.79C437.777 121.502 437.861 121.142 437.861 120.722C437.861 120.302 437.777 119.942 437.609 119.654C437.441 119.366 437.225 119.15 436.949 119.006C436.685 118.874 436.397 118.802 436.085 118.802C435.737 118.802 435.425 118.886 435.149 119.042C434.873 119.21 434.657 119.438 434.501 119.738C434.345 120.038 434.273 120.362 434.273 120.734C434.273 121.106 434.357 121.442 434.513 121.73C434.669 122.018 434.885 122.246 435.161 122.402C435.437 122.57 435.749 122.654 436.085 122.654Z" fill="#0072FF"/>
        <path d="M443.453 123.806C442.961 123.806 442.529 123.698 442.133 123.482C441.737 123.278 441.437 122.978 441.209 122.57C440.981 122.174 440.873 121.718 440.873 121.202V117.782H442.121V121.298C442.121 121.706 442.241 122.03 442.493 122.282C442.745 122.522 443.069 122.642 443.453 122.642C443.825 122.642 444.125 122.522 444.377 122.282C444.629 122.03 444.749 121.706 444.749 121.298V117.782H446.009V121.202C446.009 121.718 445.901 122.186 445.673 122.582C445.445 122.978 445.145 123.278 444.761 123.494C444.365 123.698 443.933 123.806 443.453 123.806Z" fill="#0072FF"/>
        <path d="M447.773 117.782H449.033V123.674H447.773V117.782ZM448.409 116.414C448.169 116.414 447.965 116.33 447.797 116.174C447.629 116.018 447.545 115.814 447.545 115.586C447.545 115.358 447.629 115.154 447.797 114.998C447.965 114.83 448.169 114.746 448.409 114.746C448.637 114.746 448.841 114.83 449.009 114.998C449.177 115.154 449.261 115.358 449.261 115.586C449.261 115.814 449.177 116.018 449.009 116.174C448.841 116.33 448.637 116.414 448.409 116.414Z" fill="#0072FF"/>
        <path d="M452.681 123.806C452.177 123.806 451.721 123.698 451.313 123.494C450.905 123.29 450.569 123.014 450.305 122.666L451.025 121.874C451.277 122.15 451.541 122.354 451.817 122.498C452.081 122.642 452.369 122.714 452.681 122.714C452.957 122.714 453.185 122.654 453.365 122.546C453.545 122.438 453.629 122.27 453.629 122.054C453.629 121.874 453.557 121.742 453.425 121.646C453.293 121.55 453.089 121.442 452.801 121.322L452.201 121.07C451.685 120.854 451.289 120.614 451.037 120.362C450.785 120.11 450.665 119.774 450.665 119.354C450.665 118.826 450.857 118.406 451.253 118.106C451.649 117.806 452.141 117.65 452.741 117.65C453.593 117.65 454.265 117.95 454.781 118.562L454.097 119.342C453.917 119.15 453.701 119.006 453.461 118.898C453.221 118.79 452.969 118.742 452.717 118.742C452.465 118.742 452.273 118.79 452.129 118.886C451.985 118.982 451.913 119.126 451.913 119.306C451.913 119.462 451.973 119.582 452.081 119.678C452.201 119.774 452.405 119.882 452.693 120.002L453.257 120.23C453.821 120.458 454.229 120.71 454.481 120.986C454.733 121.25 454.865 121.586 454.865 122.006C454.865 122.57 454.661 123.014 454.241 123.338C453.821 123.65 453.305 123.806 452.681 123.806Z" fill="#0072FF"/>
        <path d="M456.317 117.782H457.577V123.674H456.317V117.782ZM456.953 116.414C456.713 116.414 456.509 116.33 456.341 116.174C456.173 116.018 456.089 115.814 456.089 115.586C456.089 115.358 456.173 115.154 456.341 114.998C456.509 114.83 456.713 114.746 456.953 114.746C457.181 114.746 457.385 114.83 457.553 114.998C457.721 115.154 457.805 115.358 457.805 115.586C457.805 115.814 457.721 116.018 457.553 116.174C457.385 116.33 457.181 116.414 456.953 116.414Z" fill="#0072FF"/>
        <path d="M462.905 122.606V123.674C462.509 123.758 462.161 123.806 461.861 123.806C461.177 123.806 460.649 123.638 460.265 123.302C459.881 122.954 459.689 122.438 459.689 121.754V118.874H458.729V117.782H459.689V116.234H460.961V117.782H462.713V118.874H460.961V121.646C460.961 122.018 461.057 122.282 461.261 122.438C461.453 122.594 461.741 122.666 462.125 122.666C462.305 122.666 462.557 122.642 462.905 122.606Z" fill="#0072FF"/>
        <path d="M466.445 117.65C467.177 117.65 467.753 117.866 468.197 118.286C468.641 118.706 468.857 119.318 468.857 120.11V123.674H467.681V123.014C467.465 123.266 467.201 123.47 466.877 123.602C466.553 123.734 466.193 123.806 465.797 123.806C465.185 123.806 464.681 123.65 464.309 123.338C463.937 123.026 463.745 122.618 463.745 122.102C463.745 121.586 463.937 121.178 464.333 120.878C464.729 120.578 465.257 120.422 465.917 120.422H467.585V120.038C467.585 119.63 467.477 119.318 467.261 119.102C467.033 118.886 466.721 118.778 466.325 118.778C466.001 118.778 465.701 118.85 465.449 118.994C465.197 119.138 464.945 119.354 464.693 119.654L463.961 118.91C464.261 118.49 464.621 118.166 465.041 117.962C465.461 117.758 465.929 117.65 466.445 117.65ZM466.061 122.834C466.481 122.834 466.841 122.702 467.141 122.438C467.441 122.174 467.585 121.838 467.585 121.442V121.334H466.073C465.737 121.334 465.485 121.394 465.305 121.514C465.125 121.634 465.029 121.814 465.029 122.054C465.029 122.306 465.125 122.498 465.317 122.63C465.509 122.762 465.761 122.834 466.061 122.834Z" fill="#0072FF"/>
        <path d="M473.549 117.65C474.233 117.65 474.773 117.866 475.169 118.286C475.565 118.718 475.757 119.282 475.757 119.99V123.674H474.497V120.158C474.497 119.75 474.377 119.414 474.137 119.162C473.909 118.91 473.597 118.79 473.213 118.79C472.817 118.79 472.505 118.922 472.253 119.174C472.001 119.426 471.869 119.762 471.869 120.158V123.674H470.609V117.782H471.785V118.358C472.229 117.89 472.817 117.65 473.549 117.65Z" fill="#0072FF"/>
        <path d="M481.013 122.606V123.674C480.617 123.758 480.269 123.806 479.969 123.806C479.285 123.806 478.757 123.638 478.373 123.302C477.989 122.954 477.797 122.438 477.797 121.754V118.874H476.837V117.782H477.797V116.234H479.069V117.782H480.821V118.874H479.069V121.646C479.069 122.018 479.165 122.282 479.369 122.438C479.561 122.594 479.849 122.666 480.233 122.666C480.413 122.666 480.665 122.642 481.013 122.606Z" fill="#0072FF"/>
        <path d="M487.469 121.142H483.077C483.161 121.622 483.365 122.006 483.713 122.27C484.061 122.546 484.493 122.69 484.997 122.69C485.609 122.69 486.185 122.462 486.713 121.994L487.313 122.858C486.641 123.494 485.861 123.806 484.961 123.806C484.361 123.806 483.821 123.674 483.341 123.398C482.861 123.134 482.489 122.762 482.213 122.294C481.937 121.826 481.793 121.31 481.793 120.734C481.793 120.17 481.925 119.642 482.201 119.174C482.465 118.706 482.837 118.334 483.305 118.058C483.773 117.782 484.277 117.65 484.841 117.65C485.357 117.65 485.825 117.77 486.245 117.998C486.653 118.238 486.977 118.562 487.217 118.97C487.445 119.378 487.565 119.834 487.565 120.35C487.565 120.602 487.529 120.866 487.469 121.142ZM484.793 118.718C484.373 118.718 484.013 118.85 483.701 119.102C483.401 119.366 483.197 119.714 483.101 120.158H486.305C486.293 119.714 486.149 119.354 485.849 119.102C485.561 118.85 485.213 118.718 484.793 118.718Z" fill="#0072FF"/>
        <path d="M453.168 76.166C456.26 76.166 458.766 73.6597 458.766 70.568C458.766 67.4763 456.26 64.97 453.168 64.97C450.076 64.97 447.57 67.4763 447.57 70.568C447.57 73.6597 450.076 76.166 453.168 76.166Z" fill="black" fill-opacity="0.15" stroke="#0072FF" stroke-width="2.5" stroke-miterlimit="1.5" stroke-linecap="round" stroke-linejoin="round"/>
        <path fill-rule="evenodd" clip-rule="evenodd" d="M446.018 77.603C447.839 79.452 450.37 80.6 453.168 80.6C455.961 80.6 458.49 79.456 460.309 77.611C463.074 78.907 464.99 81.715 464.99 84.968V85.706C464.99 88.965 462.344 91.611 459.085 91.611H447.225C443.966 91.611 441.32 88.965 441.32 85.706V84.968C441.32 81.708 443.244 78.895 446.018 77.603Z" fill="black" fill-opacity="0.15" stroke="#0072FF" stroke-width="2.5" stroke-miterlimit="1.5" stroke-linecap="round" stroke-linejoin="round"/>
    </g>
    <defs>
        <clipPath id="clip0_40_172">
            <rect width="488" height="188" fill="white"/>
        </clipPath>
    </defs>
</svg>
