<?xml version="1.0" encoding="UTF-8" standalone="no"?>
<!DOCTYPE svg PUBLIC "-//W3C//DTD SVG 1.1//EN" "http://www.w3.org/Graphics/SVG/1.1/DTD/svg11.dtd">
<svg width="100%" height="100%" viewBox="0 0 146 71" version="1.1" xmlns="http://www.w3.org/2000/svg" xmlns:xlink="http://www.w3.org/1999/xlink" xml:space="preserve" xmlns:serif="http://www.serif.com/" style="fill-rule:evenodd;clip-rule:evenodd;stroke-linejoin:round;stroke-miterlimit:2;">
    <g transform="matrix(1,0,0,1,-774.326,-210.319)">
        <path d="M834.53,254.73L788.276,254.73C780.577,254.73 774.326,248.471 774.326,240.762C774.326,235.083 777.718,230.191 782.581,228.008C783.551,222.006 788.754,217.417 795.02,217.417C796.609,217.417 798.13,217.713 799.532,218.252C803.078,213.476 809.196,210.319 816.143,210.319C826.728,210.319 835.388,217.648 835.961,226.866C842.989,227.585 848.479,233.536 848.479,240.762C848.479,248.471 842.229,254.73 834.53,254.73ZM823.898,230.343C823.898,227.218 821.36,224.68 818.235,224.68L808.91,224.68C805.784,224.68 803.247,227.218 803.247,230.343L803.247,244.149C803.247,247.274 805.784,249.811 808.91,249.811L818.235,249.811C821.36,249.811 823.898,247.274 823.898,244.149L823.898,230.343ZM821.898,230.343L821.898,244.149C821.898,246.17 820.256,247.811 818.235,247.811L808.91,247.811C806.888,247.811 805.247,246.17 805.247,244.149L805.247,230.343C805.247,228.322 806.888,226.68 808.91,226.68L818.235,226.68C820.256,226.68 821.898,228.322 821.898,230.343ZM809.009,243.281L818.031,243.281C818.583,243.281 819.031,242.833 819.031,242.281C819.031,241.729 818.583,241.281 818.031,241.281L809.009,241.281C808.457,241.281 808.009,241.729 808.009,242.281C808.009,242.833 808.457,243.281 809.009,243.281ZM809.009,237.654L818.031,237.654C818.583,237.654 819.031,237.206 819.031,236.654C819.031,236.102 818.583,235.654 818.031,235.654L809.009,235.654C808.457,235.654 808.009,236.102 808.009,236.654C808.009,237.206 808.457,237.654 809.009,237.654ZM809.009,232.745L818.031,232.745C818.583,232.745 819.031,232.297 819.031,231.745C819.031,231.193 818.583,230.745 818.031,230.745L809.009,230.745C808.457,230.745 808.009,231.193 808.009,231.745C808.009,232.297 808.457,232.745 809.009,232.745Z" style="fill:rgb(34,181,115);"/>
        <g transform="matrix(1.7045,0,0,1.7045,-547.613,-192.439)">
            <g transform="matrix(13.1063,0,0,13.1063,774.326,277.605)">
                <path d="M0.166,-0.064L0.496,-0.064L0.496,-0L0.094,-0L0.094,-0.708L0.166,-0.708L0.166,-0.064Z" style="fill:rgb(37,111,81);fill-rule:nonzero;"/>
            </g>
            <g transform="matrix(13.1063,0,0,13.1063,781.011,277.605)">
                <path d="M0.385,-0.302C0.385,-0.343 0.374,-0.373 0.353,-0.393C0.332,-0.413 0.301,-0.423 0.26,-0.423C0.232,-0.423 0.206,-0.418 0.182,-0.408C0.158,-0.398 0.138,-0.385 0.121,-0.368L0.083,-0.413C0.102,-0.432 0.128,-0.448 0.16,-0.461C0.191,-0.474 0.227,-0.48 0.267,-0.48C0.292,-0.48 0.316,-0.476 0.338,-0.47C0.36,-0.463 0.379,-0.452 0.396,-0.438C0.413,-0.424 0.426,-0.406 0.435,-0.385C0.444,-0.364 0.449,-0.339 0.449,-0.31L0.449,-0.105C0.449,-0.087 0.45,-0.068 0.451,-0.049C0.452,-0.03 0.454,-0.013 0.457,-0L0.396,-0C0.394,-0.011 0.392,-0.024 0.391,-0.037C0.39,-0.05 0.389,-0.063 0.389,-0.076L0.387,-0.076C0.366,-0.045 0.341,-0.022 0.315,-0.009C0.288,0.005 0.255,0.012 0.217,0.012C0.199,0.012 0.181,0.01 0.162,0.005C0.142,-0 0.125,-0.009 0.11,-0.02C0.094,-0.031 0.081,-0.046 0.071,-0.064C0.06,-0.082 0.055,-0.104 0.055,-0.13C0.055,-0.166 0.064,-0.195 0.083,-0.216C0.101,-0.237 0.125,-0.252 0.156,-0.263C0.187,-0.273 0.222,-0.28 0.262,-0.283C0.301,-0.286 0.342,-0.287 0.385,-0.287L0.385,-0.302ZM0.365,-0.234C0.337,-0.234 0.309,-0.233 0.281,-0.231C0.252,-0.228 0.227,-0.224 0.204,-0.217C0.181,-0.21 0.162,-0.199 0.147,-0.186C0.132,-0.173 0.125,-0.155 0.125,-0.133C0.125,-0.116 0.128,-0.102 0.135,-0.091C0.141,-0.08 0.149,-0.07 0.16,-0.064C0.171,-0.056 0.183,-0.051 0.196,-0.049C0.209,-0.046 0.222,-0.044 0.235,-0.044C0.259,-0.044 0.28,-0.048 0.299,-0.057C0.318,-0.065 0.333,-0.076 0.346,-0.091C0.359,-0.105 0.368,-0.121 0.375,-0.14C0.382,-0.159 0.385,-0.178 0.385,-0.199L0.385,-0.234L0.365,-0.234Z" style="fill:rgb(37,111,81);fill-rule:nonzero;"/>
            </g>
            <g transform="matrix(13.1063,0,0,13.1063,788.009,277.605)">
                <path d="M0.43,-0C0.429,-0.013 0.428,-0.027 0.427,-0.042C0.426,-0.057 0.426,-0.07 0.426,-0.08L0.424,-0.08C0.411,-0.053 0.389,-0.031 0.359,-0.014C0.329,0.004 0.297,0.012 0.264,0.012C0.205,0.012 0.16,-0.006 0.131,-0.041C0.101,-0.076 0.086,-0.123 0.086,-0.181L0.086,-0.468L0.154,-0.468L0.154,-0.209C0.154,-0.184 0.156,-0.162 0.16,-0.142C0.164,-0.122 0.171,-0.105 0.181,-0.091C0.19,-0.076 0.203,-0.065 0.22,-0.057C0.236,-0.049 0.256,-0.045 0.281,-0.045C0.299,-0.045 0.317,-0.049 0.334,-0.056C0.35,-0.063 0.366,-0.075 0.379,-0.09C0.392,-0.105 0.403,-0.124 0.411,-0.147C0.419,-0.169 0.423,-0.197 0.423,-0.228L0.423,-0.468L0.491,-0.468L0.491,-0.103C0.491,-0.09 0.491,-0.074 0.492,-0.054C0.493,-0.034 0.494,-0.016 0.495,-0L0.43,-0Z" style="fill:rgb(37,111,81);fill-rule:nonzero;"/>
            </g>
            <g transform="matrix(13.1063,0,0,13.1063,795.624,277.605)">
                <path d="M0.475,-0.079C0.455,-0.049 0.429,-0.026 0.397,-0.011C0.365,0.004 0.332,0.012 0.298,0.012C0.261,0.012 0.228,0.006 0.199,-0.007C0.169,-0.02 0.143,-0.037 0.123,-0.059C0.101,-0.081 0.085,-0.107 0.074,-0.137C0.062,-0.167 0.056,-0.199 0.056,-0.234C0.056,-0.269 0.062,-0.301 0.074,-0.331C0.085,-0.361 0.101,-0.387 0.123,-0.409C0.143,-0.431 0.169,-0.448 0.199,-0.461C0.228,-0.474 0.261,-0.48 0.298,-0.48C0.332,-0.48 0.365,-0.472 0.397,-0.457C0.429,-0.441 0.455,-0.418 0.475,-0.387L0.477,-0.387L0.477,-0.756L0.545,-0.756L0.545,-0L0.477,-0L0.477,-0.079L0.475,-0.079ZM0.128,-0.234C0.128,-0.208 0.132,-0.184 0.14,-0.161C0.148,-0.137 0.16,-0.118 0.175,-0.101C0.19,-0.084 0.208,-0.07 0.23,-0.061C0.252,-0.051 0.277,-0.046 0.305,-0.046C0.331,-0.046 0.355,-0.051 0.377,-0.061C0.399,-0.07 0.418,-0.083 0.434,-0.1C0.45,-0.117 0.463,-0.136 0.472,-0.16C0.481,-0.183 0.485,-0.207 0.485,-0.234C0.485,-0.261 0.481,-0.286 0.472,-0.309C0.463,-0.332 0.45,-0.352 0.434,-0.369C0.418,-0.386 0.399,-0.399 0.377,-0.409C0.355,-0.418 0.331,-0.423 0.305,-0.423C0.277,-0.423 0.252,-0.418 0.23,-0.408C0.208,-0.398 0.19,-0.385 0.175,-0.368C0.16,-0.351 0.148,-0.331 0.14,-0.308C0.132,-0.285 0.128,-0.26 0.128,-0.234Z" style="fill:rgb(37,111,81);fill-rule:nonzero;"/>
            </g>
            <g transform="matrix(13.1063,0,0,13.1063,803.973,277.605)">
                <path d="M0.555,-0.234C0.555,-0.199 0.549,-0.166 0.537,-0.136C0.524,-0.106 0.507,-0.08 0.485,-0.058C0.463,-0.036 0.437,-0.019 0.406,-0.007C0.375,0.006 0.342,0.012 0.305,0.012C0.269,0.012 0.236,0.006 0.205,-0.007C0.174,-0.019 0.148,-0.036 0.126,-0.058C0.104,-0.08 0.087,-0.106 0.075,-0.136C0.062,-0.166 0.056,-0.199 0.056,-0.234C0.056,-0.269 0.062,-0.302 0.075,-0.332C0.087,-0.362 0.104,-0.388 0.126,-0.41C0.148,-0.432 0.174,-0.449 0.205,-0.462C0.236,-0.474 0.269,-0.48 0.305,-0.48C0.342,-0.48 0.375,-0.474 0.406,-0.462C0.437,-0.449 0.463,-0.432 0.485,-0.41C0.507,-0.388 0.524,-0.362 0.537,-0.332C0.549,-0.302 0.555,-0.269 0.555,-0.234ZM0.483,-0.234C0.483,-0.26 0.479,-0.285 0.471,-0.308C0.462,-0.331 0.45,-0.351 0.435,-0.368C0.42,-0.385 0.401,-0.398 0.379,-0.408C0.357,-0.418 0.332,-0.423 0.305,-0.423C0.278,-0.423 0.253,-0.418 0.232,-0.408C0.21,-0.398 0.191,-0.385 0.176,-0.368C0.161,-0.351 0.149,-0.331 0.141,-0.308C0.132,-0.285 0.128,-0.26 0.128,-0.234C0.128,-0.208 0.132,-0.184 0.141,-0.161C0.149,-0.137 0.161,-0.118 0.176,-0.101C0.191,-0.084 0.21,-0.07 0.232,-0.061C0.253,-0.051 0.278,-0.046 0.305,-0.046C0.332,-0.046 0.357,-0.051 0.379,-0.061C0.401,-0.07 0.42,-0.084 0.435,-0.101C0.45,-0.118 0.462,-0.137 0.471,-0.161C0.479,-0.184 0.483,-0.208 0.483,-0.234Z" style="fill:rgb(37,111,81);fill-rule:nonzero;"/>
            </g>
            <g transform="matrix(13.1063,0,0,13.1063,811.981,277.605)">
                <path d="M0.339,-0.357C0.329,-0.376 0.314,-0.392 0.294,-0.405C0.273,-0.417 0.25,-0.423 0.224,-0.423C0.212,-0.423 0.2,-0.422 0.188,-0.419C0.176,-0.416 0.165,-0.412 0.156,-0.406C0.147,-0.4 0.139,-0.392 0.134,-0.383C0.128,-0.374 0.125,-0.363 0.125,-0.35C0.125,-0.328 0.134,-0.311 0.152,-0.3C0.17,-0.288 0.198,-0.278 0.237,-0.27C0.292,-0.259 0.333,-0.242 0.36,-0.221C0.386,-0.199 0.399,-0.17 0.399,-0.133C0.399,-0.106 0.394,-0.084 0.384,-0.066C0.373,-0.047 0.36,-0.032 0.343,-0.021C0.326,-0.009 0.308,-0 0.287,0.005C0.266,0.01 0.244,0.012 0.223,0.012C0.188,0.012 0.153,0.005 0.12,-0.01C0.087,-0.025 0.059,-0.048 0.038,-0.079L0.092,-0.119C0.104,-0.098 0.122,-0.081 0.145,-0.067C0.168,-0.053 0.194,-0.046 0.222,-0.046C0.237,-0.046 0.251,-0.047 0.264,-0.05C0.277,-0.053 0.289,-0.057 0.299,-0.064C0.309,-0.071 0.317,-0.079 0.323,-0.09C0.329,-0.1 0.332,-0.113 0.332,-0.128C0.332,-0.153 0.32,-0.171 0.297,-0.184C0.273,-0.196 0.239,-0.207 0.194,-0.218C0.18,-0.221 0.165,-0.226 0.15,-0.231C0.134,-0.236 0.119,-0.243 0.106,-0.253C0.093,-0.262 0.082,-0.274 0.073,-0.289C0.064,-0.304 0.06,-0.322 0.06,-0.344C0.06,-0.368 0.065,-0.389 0.074,-0.406C0.083,-0.423 0.096,-0.436 0.112,-0.448C0.127,-0.459 0.145,-0.467 0.165,-0.472C0.185,-0.477 0.206,-0.48 0.227,-0.48C0.26,-0.48 0.291,-0.473 0.322,-0.458C0.353,-0.443 0.376,-0.423 0.391,-0.396L0.339,-0.357Z" style="fill:rgb(37,111,81);fill-rule:nonzero;"/>
            </g>
            <g transform="matrix(13.1063,0,0,13.1063,821.076,277.605)">
                <path d="M0.794,-0.354C0.794,-0.3 0.785,-0.25 0.766,-0.205C0.747,-0.16 0.721,-0.121 0.689,-0.088C0.656,-0.055 0.616,-0.029 0.572,-0.01C0.527,0.009 0.478,0.018 0.425,0.018C0.372,0.018 0.324,0.009 0.279,-0.01C0.234,-0.029 0.195,-0.055 0.162,-0.088C0.129,-0.121 0.103,-0.16 0.084,-0.205C0.065,-0.25 0.056,-0.3 0.056,-0.354C0.056,-0.408 0.065,-0.458 0.084,-0.503C0.103,-0.548 0.129,-0.588 0.162,-0.621C0.195,-0.654 0.234,-0.679 0.279,-0.698C0.324,-0.717 0.372,-0.726 0.425,-0.726C0.478,-0.726 0.527,-0.717 0.572,-0.698C0.616,-0.679 0.656,-0.654 0.689,-0.621C0.721,-0.588 0.747,-0.548 0.766,-0.503C0.785,-0.458 0.794,-0.408 0.794,-0.354ZM0.718,-0.354C0.718,-0.395 0.711,-0.435 0.698,-0.472C0.685,-0.509 0.665,-0.542 0.64,-0.571C0.615,-0.599 0.584,-0.621 0.548,-0.638C0.511,-0.655 0.47,-0.663 0.425,-0.663C0.38,-0.663 0.339,-0.655 0.303,-0.638C0.266,-0.621 0.235,-0.599 0.21,-0.571C0.185,-0.542 0.165,-0.509 0.152,-0.472C0.139,-0.435 0.132,-0.395 0.132,-0.354C0.132,-0.313 0.139,-0.273 0.152,-0.236C0.165,-0.199 0.185,-0.166 0.21,-0.138C0.235,-0.11 0.266,-0.088 0.303,-0.071C0.339,-0.054 0.38,-0.046 0.425,-0.046C0.47,-0.046 0.511,-0.054 0.548,-0.071C0.584,-0.088 0.615,-0.11 0.64,-0.138C0.665,-0.166 0.685,-0.199 0.698,-0.236C0.711,-0.273 0.718,-0.313 0.718,-0.354Z" style="fill:rgb(37,111,81);fill-rule:nonzero;"/>
            </g>
            <g transform="matrix(13.1063,0,0,13.1063,832.217,277.605)">
                <path d="M0.151,-0.468C0.152,-0.455 0.153,-0.441 0.154,-0.426C0.155,-0.411 0.155,-0.398 0.155,-0.388L0.157,-0.388C0.17,-0.415 0.192,-0.438 0.222,-0.455C0.252,-0.471 0.284,-0.48 0.317,-0.48C0.376,-0.48 0.421,-0.462 0.451,-0.427C0.48,-0.392 0.495,-0.345 0.495,-0.287L0.495,-0L0.427,-0L0.427,-0.259C0.427,-0.284 0.425,-0.306 0.421,-0.326C0.417,-0.346 0.41,-0.363 0.401,-0.378C0.391,-0.392 0.378,-0.403 0.362,-0.411C0.345,-0.419 0.325,-0.423 0.3,-0.423C0.282,-0.423 0.265,-0.419 0.248,-0.412C0.231,-0.405 0.215,-0.394 0.202,-0.379C0.189,-0.364 0.178,-0.345 0.17,-0.322C0.162,-0.299 0.158,-0.271 0.158,-0.24L0.158,-0L0.09,-0L0.09,-0.365C0.09,-0.378 0.09,-0.394 0.089,-0.414C0.088,-0.434 0.087,-0.452 0.086,-0.468L0.151,-0.468Z" style="fill:rgb(37,111,81);fill-rule:nonzero;"/>
            </g>
            <g transform="matrix(13.1063,0,0,13.1063,839.832,277.605)">
                <rect x="0.092" y="-0.756" width="0.068" height="0.756" style="fill:rgb(37,111,81);fill-rule:nonzero;"/>
            </g>
            <g transform="matrix(13.1063,0,0,13.1063,843.134,277.605)">
                <path d="M0.159,-0L0.091,-0L0.091,-0.468L0.159,-0.468L0.159,-0ZM0.173,-0.648C0.173,-0.634 0.168,-0.623 0.158,-0.614C0.148,-0.604 0.137,-0.6 0.125,-0.6C0.113,-0.6 0.102,-0.604 0.092,-0.614C0.082,-0.623 0.077,-0.634 0.077,-0.648C0.077,-0.662 0.082,-0.674 0.092,-0.683C0.102,-0.692 0.113,-0.696 0.125,-0.696C0.137,-0.696 0.148,-0.692 0.158,-0.683C0.168,-0.674 0.173,-0.662 0.173,-0.648Z" style="fill:rgb(37,111,81);fill-rule:nonzero;"/>
            </g>
            <g transform="matrix(13.1063,0,0,13.1063,846.411,277.605)">
                <path d="M0.151,-0.468C0.152,-0.455 0.153,-0.441 0.154,-0.426C0.155,-0.411 0.155,-0.398 0.155,-0.388L0.157,-0.388C0.17,-0.415 0.192,-0.438 0.222,-0.455C0.252,-0.471 0.284,-0.48 0.317,-0.48C0.376,-0.48 0.421,-0.462 0.451,-0.427C0.48,-0.392 0.495,-0.345 0.495,-0.287L0.495,-0L0.427,-0L0.427,-0.259C0.427,-0.284 0.425,-0.306 0.421,-0.326C0.417,-0.346 0.41,-0.363 0.401,-0.378C0.391,-0.392 0.378,-0.403 0.362,-0.411C0.345,-0.419 0.325,-0.423 0.3,-0.423C0.282,-0.423 0.265,-0.419 0.248,-0.412C0.231,-0.405 0.215,-0.394 0.202,-0.379C0.189,-0.364 0.178,-0.345 0.17,-0.322C0.162,-0.299 0.158,-0.271 0.158,-0.24L0.158,-0L0.09,-0L0.09,-0.365C0.09,-0.378 0.09,-0.394 0.089,-0.414C0.088,-0.434 0.087,-0.452 0.086,-0.468L0.151,-0.468Z" style="fill:rgb(37,111,81);fill-rule:nonzero;"/>
            </g>
            <g transform="matrix(13.1063,0,0,13.1063,854.026,277.605)">
                <path d="M0.447,-0.27C0.445,-0.314 0.431,-0.351 0.405,-0.38C0.378,-0.409 0.341,-0.423 0.292,-0.423C0.269,-0.423 0.248,-0.419 0.229,-0.411C0.21,-0.402 0.193,-0.391 0.178,-0.377C0.163,-0.362 0.152,-0.346 0.143,-0.328C0.134,-0.309 0.129,-0.29 0.128,-0.27L0.447,-0.27ZM0.516,-0.248L0.516,-0.233C0.516,-0.228 0.516,-0.222 0.515,-0.216L0.127,-0.216C0.128,-0.193 0.132,-0.171 0.141,-0.15C0.15,-0.129 0.162,-0.111 0.177,-0.096C0.192,-0.081 0.21,-0.068 0.231,-0.06C0.252,-0.05 0.274,-0.046 0.298,-0.046C0.333,-0.046 0.364,-0.054 0.39,-0.071C0.415,-0.087 0.435,-0.106 0.448,-0.127L0.499,-0.087C0.471,-0.052 0.44,-0.026 0.407,-0.011C0.373,0.004 0.337,0.012 0.298,0.012C0.263,0.012 0.231,0.006 0.202,-0.007C0.172,-0.019 0.146,-0.036 0.125,-0.058C0.104,-0.08 0.087,-0.106 0.075,-0.136C0.062,-0.166 0.056,-0.199 0.056,-0.234C0.056,-0.269 0.062,-0.302 0.074,-0.332C0.086,-0.362 0.103,-0.388 0.124,-0.41C0.145,-0.432 0.17,-0.449 0.199,-0.462C0.228,-0.474 0.259,-0.48 0.292,-0.48C0.329,-0.48 0.361,-0.474 0.389,-0.462C0.417,-0.449 0.44,-0.433 0.459,-0.412C0.478,-0.391 0.492,-0.366 0.502,-0.338C0.511,-0.31 0.516,-0.28 0.516,-0.248Z" style="fill:rgb(37,111,81);fill-rule:nonzero;"/>
            </g>
        </g>
        <g transform="matrix(0.799711,0,0,1.08292,169.651,-25.4242)">
            <g transform="matrix(39.9275,0,0,39.9275,856.882,258.704)">
                <path d="M0.052,-0.708L0.271,-0.708L0.271,-0.2L0.453,-0.2L0.453,-0L0.052,-0L0.052,-0.708Z" style="fill:rgb(34,181,115);fill-rule:nonzero;"/>
            </g>
            <g transform="matrix(39.9275,0,0,39.9275,875.449,258.704)">
                <path d="M0.24,-0.334L0.237,-0.334L0.245,-0L0.052,-0L0.052,-0.708L0.283,-0.708L0.394,-0.363L0.398,-0.363L0.392,-0.708L0.578,-0.708L0.578,-0L0.353,-0L0.24,-0.334Z" style="fill:rgb(34,181,115);fill-rule:nonzero;"/>
            </g>
            <g transform="matrix(39.9275,0,0,39.9275,900.603,258.704)">
                <path d="M0.052,-0.708L0.43,-0.708L0.43,-0.517L0.259,-0.517L0.259,-0.446L0.414,-0.446L0.414,-0.269L0.259,-0.269L0.259,-0.194L0.443,-0.194L0.443,-0L0.052,-0L0.052,-0.708Z" style="fill:rgb(34,181,115);fill-rule:nonzero;"/>
            </g>
            <g transform="matrix(39.9275,0,0,39.9275,919.249,258.704)">
                <path d="M0.339,-0L0.125,-0L0.125,-0.524L0,-0.524L0,-0.708L0.464,-0.708L0.464,-0.524L0.339,-0.524L0.339,-0Z" style="fill:rgb(34,181,115);fill-rule:nonzero;"/>
            </g>
        </g>
    </g>
</svg>
