<?xml version="1.0" encoding="UTF-8" standalone="no"?>
<!DOCTYPE svg PUBLIC "-//W3C//DTD SVG 1.1//EN" "http://www.w3.org/Graphics/SVG/1.1/DTD/svg11.dtd">
<svg width="100%" height="100%" viewBox="0 0 146 72" version="1.1" xmlns="http://www.w3.org/2000/svg" xmlns:xlink="http://www.w3.org/1999/xlink" xml:space="preserve" xmlns:serif="http://www.serif.com/" style="fill-rule:evenodd;clip-rule:evenodd;stroke-linejoin:round;stroke-miterlimit:2;">
    <g transform="matrix(1,0,0,1,-774.326,-210.319)">
        <g transform="matrix(1.03315,0,0,1.03315,-31.6412,-9.47298)">
            <g transform="matrix(0.847009,0,0,1,131.098,0)">
                <path d="M864.836,242.399L864.709,242.399L865.047,256.489L856.905,256.489L856.905,226.622L866.65,226.622L871.333,241.175L871.501,241.175L871.248,226.622L879.095,226.622L879.095,256.489L869.603,256.489L864.836,242.399Z" style="fill:rgb(90,178,231);fill-rule:nonzero;"/>
            </g>
            <g transform="matrix(0.847009,0,0,1,131.098,0)">
                <path d="M893.817,257.332C891.849,257.332 890.175,257.016 888.797,256.383C887.419,255.75 886.287,254.872 885.401,253.747C884.515,252.622 883.869,251.3 883.461,249.781C883.053,248.263 882.849,246.617 882.849,244.846L882.849,226.622L892.088,226.622L892.088,244.044C892.088,245.478 892.207,246.568 892.446,247.313C892.685,248.059 893.199,248.431 893.986,248.431C894.774,248.431 895.294,248.059 895.547,247.313C895.8,246.568 895.927,245.478 895.927,244.044L895.927,226.622L905.039,226.622L905.039,244.846C905.039,246.617 904.821,248.263 904.385,249.781C903.949,251.3 903.274,252.622 902.36,253.747C901.446,254.872 900.286,255.75 898.88,256.383C897.473,257.016 895.786,257.332 893.817,257.332Z" style="fill:rgb(90,178,231);fill-rule:nonzero;"/>
            </g>
            <g transform="matrix(0.847009,0,0,1,131.098,0)">
                <path d="M913.434,256.489L906.346,226.622L916.808,226.622L919.508,245.478L919.635,245.478L922.25,226.622L932.248,226.622L924.992,256.489L913.434,256.489Z" style="fill:rgb(90,178,231);fill-rule:nonzero;"/>
            </g>
        </g>
        <path d="M834.53,254.73L788.276,254.73C780.577,254.73 774.326,248.471 774.326,240.762C774.326,235.083 777.718,230.191 782.581,228.008C783.551,222.006 788.754,217.417 795.02,217.417C796.609,217.417 798.13,217.713 799.532,218.252C803.078,213.476 809.196,210.319 816.143,210.319C826.728,210.319 835.388,217.648 835.961,226.866C842.989,227.585 848.479,233.536 848.479,240.762C848.479,248.471 842.229,254.73 834.53,254.73Z" style="fill:rgb(90,178,231);"/>
        <g transform="matrix(1,0,0,1,-1.38443,0)">
            <path d="M798.825,232.794L795.938,232.794C795.438,232.794 794.985,232.495 794.789,232.035C794.592,231.575 794.688,231.042 795.034,230.68L802.04,223.342C802.276,223.095 802.603,222.956 802.944,222.956C803.286,222.956 803.612,223.095 803.848,223.342L810.855,230.68C811.2,231.042 811.297,231.575 811.1,232.035C810.903,232.495 810.451,232.794 809.951,232.794L807.064,232.794L807.064,244.895C807.064,246.031 806.141,246.954 805.004,246.954L800.885,246.954C799.748,246.954 798.825,246.031 798.825,244.895L798.825,232.794Z" style="fill:rgb(52,125,169);"/>
            <g transform="matrix(1,0,0,-1,19.6859,474.042)">
                <path d="M798.825,232.794L795.938,232.794C795.438,232.794 794.985,232.495 794.789,232.035C794.592,231.575 794.688,231.042 795.034,230.68L802.04,223.342C802.276,223.095 802.603,222.956 802.944,222.956C803.286,222.956 803.612,223.095 803.848,223.342L810.855,230.68C811.2,231.042 811.297,231.575 811.1,232.035C810.903,232.495 810.451,232.794 809.951,232.794L807.064,232.794L807.064,244.895C807.064,246.031 806.141,246.954 805.004,246.954L800.885,246.954C799.748,246.954 798.825,246.031 798.825,244.895L798.825,232.794Z" style="fill:rgb(52,125,169);"/>
            </g>
        </g>
        <g transform="matrix(1.36726,0,0,1.36726,-286.062,-102.161)">
            <g transform="matrix(13.1063,0,0,13.1063,774.326,277.605)">
                <path d="M0.094,-0.708L0.305,-0.708C0.332,-0.708 0.359,-0.705 0.386,-0.7C0.413,-0.694 0.438,-0.684 0.46,-0.671C0.481,-0.657 0.499,-0.638 0.513,-0.615C0.526,-0.592 0.533,-0.562 0.533,-0.527C0.533,-0.49 0.522,-0.457 0.499,-0.43C0.476,-0.402 0.446,-0.384 0.408,-0.375L0.408,-0.373C0.454,-0.368 0.492,-0.35 0.523,-0.32C0.553,-0.289 0.568,-0.248 0.568,-0.196C0.568,-0.167 0.562,-0.14 0.55,-0.116C0.537,-0.091 0.52,-0.07 0.497,-0.054C0.474,-0.037 0.447,-0.023 0.414,-0.014C0.381,-0.005 0.345,-0 0.304,-0L0.094,-0L0.094,-0.708ZM0.166,-0.398L0.311,-0.398C0.328,-0.398 0.346,-0.4 0.364,-0.404C0.381,-0.408 0.397,-0.415 0.412,-0.425C0.427,-0.434 0.439,-0.447 0.448,-0.463C0.456,-0.479 0.461,-0.499 0.461,-0.522C0.461,-0.545 0.456,-0.564 0.448,-0.58C0.439,-0.595 0.426,-0.608 0.411,-0.618C0.396,-0.628 0.378,-0.635 0.357,-0.64C0.336,-0.644 0.314,-0.646 0.291,-0.646L0.166,-0.646L0.166,-0.398ZM0.166,-0.062L0.3,-0.062C0.326,-0.062 0.351,-0.065 0.375,-0.07C0.398,-0.075 0.419,-0.083 0.437,-0.094C0.454,-0.105 0.468,-0.119 0.479,-0.137C0.49,-0.154 0.495,-0.175 0.495,-0.2C0.495,-0.247 0.479,-0.282 0.448,-0.305C0.416,-0.328 0.371,-0.339 0.313,-0.339L0.166,-0.339L0.166,-0.062Z" style="fill:rgb(32,132,191);fill-rule:nonzero;"/>
            </g>
            <g transform="matrix(13.1063,0,0,13.1063,782.662,277.605)">
                <path d="M0.385,-0.302C0.385,-0.343 0.374,-0.373 0.353,-0.393C0.332,-0.413 0.301,-0.423 0.26,-0.423C0.232,-0.423 0.206,-0.418 0.182,-0.408C0.158,-0.398 0.138,-0.385 0.121,-0.368L0.083,-0.413C0.102,-0.432 0.128,-0.448 0.16,-0.461C0.191,-0.474 0.227,-0.48 0.267,-0.48C0.292,-0.48 0.316,-0.476 0.338,-0.47C0.36,-0.463 0.379,-0.452 0.396,-0.438C0.413,-0.424 0.426,-0.406 0.435,-0.385C0.444,-0.364 0.449,-0.339 0.449,-0.31L0.449,-0.105C0.449,-0.087 0.45,-0.068 0.451,-0.049C0.452,-0.03 0.454,-0.013 0.457,-0L0.396,-0C0.394,-0.011 0.392,-0.024 0.391,-0.037C0.39,-0.05 0.389,-0.063 0.389,-0.076L0.387,-0.076C0.366,-0.045 0.341,-0.022 0.315,-0.009C0.288,0.005 0.255,0.012 0.217,0.012C0.199,0.012 0.181,0.01 0.162,0.005C0.142,-0 0.125,-0.009 0.11,-0.02C0.094,-0.031 0.081,-0.046 0.071,-0.064C0.06,-0.082 0.055,-0.104 0.055,-0.13C0.055,-0.166 0.064,-0.195 0.083,-0.216C0.101,-0.237 0.125,-0.252 0.156,-0.263C0.187,-0.273 0.222,-0.28 0.262,-0.283C0.301,-0.286 0.342,-0.287 0.385,-0.287L0.385,-0.302ZM0.365,-0.234C0.337,-0.234 0.309,-0.233 0.281,-0.231C0.252,-0.228 0.227,-0.224 0.204,-0.217C0.181,-0.21 0.162,-0.199 0.147,-0.186C0.132,-0.173 0.125,-0.155 0.125,-0.133C0.125,-0.116 0.128,-0.102 0.135,-0.091C0.141,-0.08 0.149,-0.07 0.16,-0.064C0.171,-0.056 0.183,-0.051 0.196,-0.049C0.209,-0.046 0.222,-0.044 0.235,-0.044C0.259,-0.044 0.28,-0.048 0.299,-0.057C0.318,-0.065 0.333,-0.076 0.346,-0.091C0.359,-0.105 0.368,-0.121 0.375,-0.14C0.382,-0.159 0.385,-0.178 0.385,-0.199L0.385,-0.234L0.365,-0.234Z" style="fill:rgb(32,132,191);fill-rule:nonzero;"/>
            </g>
            <g transform="matrix(13.1063,0,0,13.1063,789.661,277.605)">
                <path d="M0.427,-0.361C0.416,-0.379 0.399,-0.394 0.378,-0.406C0.356,-0.417 0.332,-0.423 0.307,-0.423C0.28,-0.423 0.255,-0.418 0.233,-0.409C0.211,-0.399 0.192,-0.386 0.177,-0.369C0.161,-0.352 0.149,-0.332 0.141,-0.309C0.132,-0.286 0.128,-0.261 0.128,-0.234C0.128,-0.207 0.132,-0.183 0.141,-0.16C0.149,-0.137 0.161,-0.118 0.176,-0.101C0.191,-0.084 0.21,-0.07 0.232,-0.061C0.254,-0.051 0.279,-0.046 0.306,-0.046C0.336,-0.046 0.361,-0.052 0.382,-0.063C0.403,-0.074 0.42,-0.089 0.433,-0.107L0.484,-0.069C0.464,-0.044 0.44,-0.025 0.411,-0.01C0.382,0.005 0.347,0.012 0.306,0.012C0.268,0.012 0.234,0.006 0.203,-0.007C0.172,-0.019 0.146,-0.036 0.125,-0.058C0.103,-0.08 0.086,-0.106 0.074,-0.136C0.062,-0.166 0.056,-0.199 0.056,-0.234C0.056,-0.269 0.062,-0.302 0.074,-0.332C0.086,-0.362 0.103,-0.388 0.125,-0.41C0.146,-0.432 0.172,-0.449 0.203,-0.462C0.234,-0.474 0.268,-0.48 0.306,-0.48C0.337,-0.48 0.369,-0.473 0.402,-0.46C0.434,-0.446 0.46,-0.426 0.48,-0.399L0.427,-0.361Z" style="fill:rgb(32,132,191);fill-rule:nonzero;"/>
            </g>
            <g transform="matrix(13.1063,0,0,13.1063,796.214,277.605)">
                <path d="M0.16,-0.257L0.163,-0.257L0.379,-0.468L0.477,-0.468L0.241,-0.254L0.501,-0L0.401,-0L0.163,-0.246L0.16,-0.246L0.16,-0L0.092,-0L0.092,-0.756L0.16,-0.756L0.16,-0.257Z" style="fill:rgb(32,132,191);fill-rule:nonzero;"/>
            </g>
            <g transform="matrix(13.1063,0,0,13.1063,802.741,277.605)">
                <path d="M0.43,-0C0.429,-0.013 0.428,-0.027 0.427,-0.042C0.426,-0.057 0.426,-0.07 0.426,-0.08L0.424,-0.08C0.411,-0.053 0.389,-0.031 0.359,-0.014C0.329,0.004 0.297,0.012 0.264,0.012C0.205,0.012 0.16,-0.006 0.131,-0.041C0.101,-0.076 0.086,-0.123 0.086,-0.181L0.086,-0.468L0.154,-0.468L0.154,-0.209C0.154,-0.184 0.156,-0.162 0.16,-0.142C0.164,-0.122 0.171,-0.105 0.181,-0.091C0.19,-0.076 0.203,-0.065 0.22,-0.057C0.236,-0.049 0.256,-0.045 0.281,-0.045C0.299,-0.045 0.317,-0.049 0.334,-0.056C0.35,-0.063 0.366,-0.075 0.379,-0.09C0.392,-0.105 0.403,-0.124 0.411,-0.147C0.419,-0.169 0.423,-0.197 0.423,-0.228L0.423,-0.468L0.491,-0.468L0.491,-0.103C0.491,-0.09 0.491,-0.074 0.492,-0.054C0.493,-0.034 0.494,-0.016 0.495,-0L0.43,-0Z" style="fill:rgb(32,132,191);fill-rule:nonzero;"/>
            </g>
            <g transform="matrix(13.1063,0,0,13.1063,810.356,277.605)">
                <path d="M0.158,0.24L0.09,0.24L0.09,-0.468L0.158,-0.468L0.158,-0.387L0.161,-0.387C0.18,-0.418 0.206,-0.441 0.239,-0.457C0.271,-0.472 0.304,-0.48 0.337,-0.48C0.374,-0.48 0.407,-0.474 0.437,-0.461C0.466,-0.448 0.492,-0.431 0.513,-0.409C0.534,-0.387 0.55,-0.361 0.562,-0.331C0.573,-0.301 0.579,-0.269 0.579,-0.234C0.579,-0.199 0.573,-0.167 0.562,-0.137C0.55,-0.107 0.534,-0.081 0.513,-0.059C0.492,-0.037 0.466,-0.02 0.437,-0.007C0.407,0.006 0.374,0.012 0.337,0.012C0.304,0.012 0.271,0.004 0.239,-0.012C0.206,-0.027 0.18,-0.05 0.161,-0.079L0.158,-0.079L0.158,0.24ZM0.507,-0.234C0.507,-0.26 0.503,-0.285 0.495,-0.308C0.487,-0.331 0.475,-0.351 0.461,-0.368C0.446,-0.385 0.427,-0.398 0.405,-0.408C0.383,-0.418 0.358,-0.423 0.33,-0.423C0.304,-0.423 0.28,-0.418 0.258,-0.409C0.236,-0.399 0.217,-0.386 0.201,-0.369C0.185,-0.352 0.172,-0.332 0.164,-0.309C0.155,-0.286 0.15,-0.261 0.15,-0.234C0.15,-0.207 0.155,-0.183 0.164,-0.16C0.172,-0.136 0.185,-0.117 0.201,-0.1C0.217,-0.083 0.236,-0.07 0.258,-0.061C0.28,-0.051 0.304,-0.046 0.33,-0.046C0.358,-0.046 0.383,-0.051 0.405,-0.061C0.427,-0.07 0.446,-0.084 0.461,-0.101C0.475,-0.118 0.487,-0.137 0.495,-0.161C0.503,-0.184 0.507,-0.208 0.507,-0.234Z" style="fill:rgb(32,132,191);fill-rule:nonzero;"/>
            </g>
            <g transform="matrix(13.1063,0,0,13.1063,821.955,277.605)">
                <path d="M0.151,-0.468C0.152,-0.455 0.153,-0.441 0.154,-0.426C0.155,-0.411 0.155,-0.398 0.155,-0.388L0.157,-0.388C0.17,-0.415 0.192,-0.438 0.222,-0.455C0.252,-0.471 0.284,-0.48 0.317,-0.48C0.376,-0.48 0.421,-0.462 0.451,-0.427C0.48,-0.392 0.495,-0.345 0.495,-0.287L0.495,-0L0.427,-0L0.427,-0.259C0.427,-0.284 0.425,-0.306 0.421,-0.326C0.417,-0.346 0.41,-0.363 0.401,-0.378C0.391,-0.392 0.378,-0.403 0.362,-0.411C0.345,-0.419 0.325,-0.423 0.3,-0.423C0.282,-0.423 0.265,-0.419 0.248,-0.412C0.231,-0.405 0.215,-0.394 0.202,-0.379C0.189,-0.364 0.178,-0.345 0.17,-0.322C0.162,-0.299 0.158,-0.271 0.158,-0.24L0.158,-0L0.09,-0L0.09,-0.365C0.09,-0.378 0.09,-0.394 0.089,-0.414C0.088,-0.434 0.087,-0.452 0.086,-0.468L0.151,-0.468Z" style="fill:rgb(32,132,191);fill-rule:nonzero;"/>
            </g>
            <g transform="matrix(13.1063,0,0,13.1063,829.569,277.605)">
                <path d="M0.385,-0.302C0.385,-0.343 0.374,-0.373 0.353,-0.393C0.332,-0.413 0.301,-0.423 0.26,-0.423C0.232,-0.423 0.206,-0.418 0.182,-0.408C0.158,-0.398 0.138,-0.385 0.121,-0.368L0.083,-0.413C0.102,-0.432 0.128,-0.448 0.16,-0.461C0.191,-0.474 0.227,-0.48 0.267,-0.48C0.292,-0.48 0.316,-0.476 0.338,-0.47C0.36,-0.463 0.379,-0.452 0.396,-0.438C0.413,-0.424 0.426,-0.406 0.435,-0.385C0.444,-0.364 0.449,-0.339 0.449,-0.31L0.449,-0.105C0.449,-0.087 0.45,-0.068 0.451,-0.049C0.452,-0.03 0.454,-0.013 0.457,-0L0.396,-0C0.394,-0.011 0.392,-0.024 0.391,-0.037C0.39,-0.05 0.389,-0.063 0.389,-0.076L0.387,-0.076C0.366,-0.045 0.341,-0.022 0.315,-0.009C0.288,0.005 0.255,0.012 0.217,0.012C0.199,0.012 0.181,0.01 0.162,0.005C0.142,-0 0.125,-0.009 0.11,-0.02C0.094,-0.031 0.081,-0.046 0.071,-0.064C0.06,-0.082 0.055,-0.104 0.055,-0.13C0.055,-0.166 0.064,-0.195 0.083,-0.216C0.101,-0.237 0.125,-0.252 0.156,-0.263C0.187,-0.273 0.222,-0.28 0.262,-0.283C0.301,-0.286 0.342,-0.287 0.385,-0.287L0.385,-0.302ZM0.365,-0.234C0.337,-0.234 0.309,-0.233 0.281,-0.231C0.252,-0.228 0.227,-0.224 0.204,-0.217C0.181,-0.21 0.162,-0.199 0.147,-0.186C0.132,-0.173 0.125,-0.155 0.125,-0.133C0.125,-0.116 0.128,-0.102 0.135,-0.091C0.141,-0.08 0.149,-0.07 0.16,-0.064C0.171,-0.056 0.183,-0.051 0.196,-0.049C0.209,-0.046 0.222,-0.044 0.235,-0.044C0.259,-0.044 0.28,-0.048 0.299,-0.057C0.318,-0.065 0.333,-0.076 0.346,-0.091C0.359,-0.105 0.368,-0.121 0.375,-0.14C0.382,-0.159 0.385,-0.178 0.385,-0.199L0.385,-0.234L0.365,-0.234Z" style="fill:rgb(32,132,191);fill-rule:nonzero;"/>
            </g>
            <g transform="matrix(13.1063,0,0,13.1063,839.845,277.605)">
                <path d="M0.596,-0.105L0.598,-0.105L0.598,-0.708L0.67,-0.708L0.67,-0L0.58,-0L0.168,-0.609L0.166,-0.609L0.166,-0L0.094,-0L0.094,-0.708L0.184,-0.708L0.596,-0.105Z" style="fill:rgb(32,132,191);fill-rule:nonzero;"/>
            </g>
            <g transform="matrix(13.1063,0,0,13.1063,849.858,277.605)">
                <path d="M0.43,-0C0.429,-0.013 0.428,-0.027 0.427,-0.042C0.426,-0.057 0.426,-0.07 0.426,-0.08L0.424,-0.08C0.411,-0.053 0.389,-0.031 0.359,-0.014C0.329,0.004 0.297,0.012 0.264,0.012C0.205,0.012 0.16,-0.006 0.131,-0.041C0.101,-0.076 0.086,-0.123 0.086,-0.181L0.086,-0.468L0.154,-0.468L0.154,-0.209C0.154,-0.184 0.156,-0.162 0.16,-0.142C0.164,-0.122 0.171,-0.105 0.181,-0.091C0.19,-0.076 0.203,-0.065 0.22,-0.057C0.236,-0.049 0.256,-0.045 0.281,-0.045C0.299,-0.045 0.317,-0.049 0.334,-0.056C0.35,-0.063 0.366,-0.075 0.379,-0.09C0.392,-0.105 0.403,-0.124 0.411,-0.147C0.419,-0.169 0.423,-0.197 0.423,-0.228L0.423,-0.468L0.491,-0.468L0.491,-0.103C0.491,-0.09 0.491,-0.074 0.492,-0.054C0.493,-0.034 0.494,-0.016 0.495,-0L0.43,-0Z" style="fill:rgb(32,132,191);fill-rule:nonzero;"/>
            </g>
            <g transform="matrix(13.1063,0,0,13.1063,857.473,277.605)">
                <path d="M0.282,-0L0.207,-0L0.016,-0.468L0.092,-0.468L0.244,-0.072L0.246,-0.072L0.399,-0.468L0.472,-0.468L0.282,-0Z" style="fill:rgb(32,132,191);fill-rule:nonzero;"/>
            </g>
            <g transform="matrix(13.1063,0,0,13.1063,863.868,277.605)">
                <path d="M0.447,-0.27C0.445,-0.314 0.431,-0.351 0.405,-0.38C0.378,-0.409 0.341,-0.423 0.292,-0.423C0.269,-0.423 0.248,-0.419 0.229,-0.411C0.21,-0.402 0.193,-0.391 0.178,-0.377C0.163,-0.362 0.152,-0.346 0.143,-0.328C0.134,-0.309 0.129,-0.29 0.128,-0.27L0.447,-0.27ZM0.516,-0.248L0.516,-0.233C0.516,-0.228 0.516,-0.222 0.515,-0.216L0.127,-0.216C0.128,-0.193 0.132,-0.171 0.141,-0.15C0.15,-0.129 0.162,-0.111 0.177,-0.096C0.192,-0.081 0.21,-0.068 0.231,-0.06C0.252,-0.05 0.274,-0.046 0.298,-0.046C0.333,-0.046 0.364,-0.054 0.39,-0.071C0.415,-0.087 0.435,-0.106 0.448,-0.127L0.499,-0.087C0.471,-0.052 0.44,-0.026 0.407,-0.011C0.373,0.004 0.337,0.012 0.298,0.012C0.263,0.012 0.231,0.006 0.202,-0.007C0.172,-0.019 0.146,-0.036 0.125,-0.058C0.104,-0.08 0.087,-0.106 0.075,-0.136C0.062,-0.166 0.056,-0.199 0.056,-0.234C0.056,-0.269 0.062,-0.302 0.074,-0.332C0.086,-0.362 0.103,-0.388 0.124,-0.41C0.145,-0.432 0.17,-0.449 0.199,-0.462C0.228,-0.474 0.259,-0.48 0.292,-0.48C0.329,-0.48 0.361,-0.474 0.389,-0.462C0.417,-0.449 0.44,-0.433 0.459,-0.412C0.478,-0.391 0.492,-0.366 0.502,-0.338C0.511,-0.31 0.516,-0.28 0.516,-0.248Z" style="fill:rgb(32,132,191);fill-rule:nonzero;"/>
            </g>
            <g transform="matrix(13.1063,0,0,13.1063,871.365,277.605)">
                <path d="M0.157,-0.388C0.17,-0.415 0.191,-0.438 0.219,-0.455C0.246,-0.471 0.277,-0.48 0.311,-0.48C0.324,-0.48 0.337,-0.479 0.351,-0.476C0.364,-0.473 0.378,-0.468 0.391,-0.461C0.404,-0.453 0.416,-0.443 0.427,-0.43C0.438,-0.417 0.447,-0.401 0.455,-0.381C0.471,-0.413 0.493,-0.438 0.521,-0.455C0.548,-0.471 0.581,-0.48 0.619,-0.48C0.678,-0.48 0.723,-0.462 0.753,-0.427C0.782,-0.392 0.797,-0.345 0.797,-0.287L0.797,-0L0.729,-0L0.729,-0.259C0.729,-0.308 0.72,-0.348 0.702,-0.378C0.683,-0.408 0.652,-0.423 0.608,-0.423C0.583,-0.423 0.563,-0.418 0.546,-0.408C0.529,-0.398 0.515,-0.385 0.505,-0.369C0.494,-0.352 0.487,-0.334 0.482,-0.313C0.477,-0.292 0.475,-0.271 0.475,-0.249L0.475,-0L0.407,-0L0.407,-0.273C0.407,-0.296 0.405,-0.316 0.402,-0.335C0.399,-0.354 0.393,-0.37 0.385,-0.383C0.376,-0.396 0.365,-0.406 0.35,-0.413C0.335,-0.42 0.317,-0.423 0.294,-0.423C0.278,-0.423 0.262,-0.419 0.246,-0.412C0.229,-0.405 0.215,-0.394 0.202,-0.379C0.189,-0.364 0.178,-0.345 0.17,-0.322C0.162,-0.299 0.158,-0.271 0.158,-0.24L0.158,-0L0.09,-0L0.09,-0.365C0.09,-0.378 0.09,-0.394 0.089,-0.414C0.088,-0.434 0.087,-0.452 0.086,-0.468L0.151,-0.468C0.152,-0.455 0.153,-0.441 0.154,-0.426C0.155,-0.411 0.155,-0.398 0.155,-0.388L0.157,-0.388Z" style="fill:rgb(32,132,191);fill-rule:nonzero;"/>
            </g>
        </g>
    </g>
</svg>
