<?xml version="1.0" encoding="UTF-8" standalone="no"?>
<!DOCTYPE svg PUBLIC "-//W3C//DTD SVG 1.1//EN" "http://www.w3.org/Graphics/SVG/1.1/DTD/svg11.dtd">
<svg width="100%" height="100%" viewBox="0 0 137 69" version="1.1" xmlns="http://www.w3.org/2000/svg" xmlns:xlink="http://www.w3.org/1999/xlink" xml:space="preserve" xmlns:serif="http://www.serif.com/" style="fill-rule:evenodd;clip-rule:evenodd;stroke-linejoin:round;stroke-miterlimit:2;">
    <g transform="matrix(1,0,0,1,-772.821,-210.319)">
        <g transform="matrix(1.42634,0,0,1.42634,-331.815,-117.975)">
            <g transform="matrix(13.1063,0,0,13.1063,774.326,277.605)">
                <path d="M0.089,-0L0.01,-0L0.316,-0.708L0.386,-0.708L0.69,-0L0.61,-0L0.532,-0.186L0.166,-0.186L0.089,-0ZM0.193,-0.252L0.505,-0.252L0.349,-0.628L0.193,-0.252Z" style="fill:rgb(197,72,28);fill-rule:nonzero;"/>
            </g>
            <g transform="matrix(13.1063,0,0,13.1063,783.501,277.605)">
                <path d="M0.475,-0.079C0.455,-0.049 0.429,-0.026 0.397,-0.011C0.365,0.004 0.332,0.012 0.298,0.012C0.261,0.012 0.228,0.006 0.199,-0.007C0.169,-0.02 0.143,-0.037 0.123,-0.059C0.101,-0.081 0.085,-0.107 0.074,-0.137C0.062,-0.167 0.056,-0.199 0.056,-0.234C0.056,-0.269 0.062,-0.301 0.074,-0.331C0.085,-0.361 0.101,-0.387 0.123,-0.409C0.143,-0.431 0.169,-0.448 0.199,-0.461C0.228,-0.474 0.261,-0.48 0.298,-0.48C0.332,-0.48 0.365,-0.472 0.397,-0.457C0.429,-0.441 0.455,-0.418 0.475,-0.387L0.477,-0.387L0.477,-0.756L0.545,-0.756L0.545,-0L0.477,-0L0.477,-0.079L0.475,-0.079ZM0.128,-0.234C0.128,-0.208 0.132,-0.184 0.14,-0.161C0.148,-0.137 0.16,-0.118 0.175,-0.101C0.19,-0.084 0.208,-0.07 0.23,-0.061C0.252,-0.051 0.277,-0.046 0.305,-0.046C0.331,-0.046 0.355,-0.051 0.377,-0.061C0.399,-0.07 0.418,-0.083 0.434,-0.1C0.45,-0.117 0.463,-0.136 0.472,-0.16C0.481,-0.183 0.485,-0.207 0.485,-0.234C0.485,-0.261 0.481,-0.286 0.472,-0.309C0.463,-0.332 0.45,-0.352 0.434,-0.369C0.418,-0.386 0.399,-0.399 0.377,-0.409C0.355,-0.418 0.331,-0.423 0.305,-0.423C0.277,-0.423 0.252,-0.418 0.23,-0.408C0.208,-0.398 0.19,-0.385 0.175,-0.368C0.16,-0.351 0.148,-0.331 0.14,-0.308C0.132,-0.285 0.128,-0.26 0.128,-0.234Z" style="fill:rgb(197,72,28);fill-rule:nonzero;"/>
            </g>
            <g transform="matrix(13.1063,0,0,13.1063,791.85,277.605)">
                <path d="M0.157,-0.388C0.17,-0.415 0.191,-0.438 0.219,-0.455C0.246,-0.471 0.277,-0.48 0.311,-0.48C0.324,-0.48 0.337,-0.479 0.351,-0.476C0.364,-0.473 0.378,-0.468 0.391,-0.461C0.404,-0.453 0.416,-0.443 0.427,-0.43C0.438,-0.417 0.447,-0.401 0.455,-0.381C0.471,-0.413 0.493,-0.438 0.521,-0.455C0.548,-0.471 0.581,-0.48 0.619,-0.48C0.678,-0.48 0.723,-0.462 0.753,-0.427C0.782,-0.392 0.797,-0.345 0.797,-0.287L0.797,-0L0.729,-0L0.729,-0.259C0.729,-0.308 0.72,-0.348 0.702,-0.378C0.683,-0.408 0.652,-0.423 0.608,-0.423C0.583,-0.423 0.563,-0.418 0.546,-0.408C0.529,-0.398 0.515,-0.385 0.505,-0.369C0.494,-0.352 0.487,-0.334 0.482,-0.313C0.477,-0.292 0.475,-0.271 0.475,-0.249L0.475,-0L0.407,-0L0.407,-0.273C0.407,-0.296 0.405,-0.316 0.402,-0.335C0.399,-0.354 0.393,-0.37 0.385,-0.383C0.376,-0.396 0.365,-0.406 0.35,-0.413C0.335,-0.42 0.317,-0.423 0.294,-0.423C0.278,-0.423 0.262,-0.419 0.246,-0.412C0.229,-0.405 0.215,-0.394 0.202,-0.379C0.189,-0.364 0.178,-0.345 0.17,-0.322C0.162,-0.299 0.158,-0.271 0.158,-0.24L0.158,-0L0.09,-0L0.09,-0.365C0.09,-0.378 0.09,-0.394 0.089,-0.414C0.088,-0.434 0.087,-0.452 0.086,-0.468L0.151,-0.468C0.152,-0.455 0.153,-0.441 0.154,-0.426C0.155,-0.411 0.155,-0.398 0.155,-0.388L0.157,-0.388Z" style="fill:rgb(197,72,28);fill-rule:nonzero;"/>
            </g>
            <g transform="matrix(13.1063,0,0,13.1063,803.422,277.605)">
                <path d="M0.063,0.018L0.005,-0.001L0.308,-0.726L0.365,-0.706L0.063,0.018Z" style="fill:rgb(197,72,28);fill-rule:nonzero;"/>
            </g>
            <g transform="matrix(13.1063,0,0,13.1063,808.272,277.605)">
                <path d="M0.166,-0L0.094,-0L0.094,-0.708L0.521,-0.708L0.521,-0.644L0.166,-0.644L0.166,-0.398L0.496,-0.398L0.496,-0.335L0.166,-0.335L0.166,-0Z" style="fill:rgb(197,72,28);fill-rule:nonzero;"/>
            </g>
            <g transform="matrix(13.1063,0,0,13.1063,815.401,277.605)">
                <path d="M0.159,-0L0.091,-0L0.091,-0.468L0.159,-0.468L0.159,-0ZM0.173,-0.648C0.173,-0.634 0.168,-0.623 0.158,-0.614C0.148,-0.604 0.137,-0.6 0.125,-0.6C0.113,-0.6 0.102,-0.604 0.092,-0.614C0.082,-0.623 0.077,-0.634 0.077,-0.648C0.077,-0.662 0.082,-0.674 0.092,-0.683C0.102,-0.692 0.113,-0.696 0.125,-0.696C0.137,-0.696 0.148,-0.692 0.158,-0.683C0.168,-0.674 0.173,-0.662 0.173,-0.648Z" style="fill:rgb(197,72,28);fill-rule:nonzero;"/>
            </g>
            <g transform="matrix(13.1063,0,0,13.1063,818.678,277.605)">
                <path d="M0.151,-0.468C0.152,-0.455 0.153,-0.441 0.154,-0.426C0.155,-0.411 0.155,-0.398 0.155,-0.388L0.157,-0.388C0.17,-0.415 0.192,-0.438 0.222,-0.455C0.252,-0.471 0.284,-0.48 0.317,-0.48C0.376,-0.48 0.421,-0.462 0.451,-0.427C0.48,-0.392 0.495,-0.345 0.495,-0.287L0.495,-0L0.427,-0L0.427,-0.259C0.427,-0.284 0.425,-0.306 0.421,-0.326C0.417,-0.346 0.41,-0.363 0.401,-0.378C0.391,-0.392 0.378,-0.403 0.362,-0.411C0.345,-0.419 0.325,-0.423 0.3,-0.423C0.282,-0.423 0.265,-0.419 0.248,-0.412C0.231,-0.405 0.215,-0.394 0.202,-0.379C0.189,-0.364 0.178,-0.345 0.17,-0.322C0.162,-0.299 0.158,-0.271 0.158,-0.24L0.158,-0L0.09,-0L0.09,-0.365C0.09,-0.378 0.09,-0.394 0.089,-0.414C0.088,-0.434 0.087,-0.452 0.086,-0.468L0.151,-0.468Z" style="fill:rgb(197,72,28);fill-rule:nonzero;"/>
            </g>
            <g transform="matrix(13.1063,0,0,13.1063,826.293,277.605)">
                <path d="M0.385,-0.302C0.385,-0.343 0.374,-0.373 0.353,-0.393C0.332,-0.413 0.301,-0.423 0.26,-0.423C0.232,-0.423 0.206,-0.418 0.182,-0.408C0.158,-0.398 0.138,-0.385 0.121,-0.368L0.083,-0.413C0.102,-0.432 0.128,-0.448 0.16,-0.461C0.191,-0.474 0.227,-0.48 0.267,-0.48C0.292,-0.48 0.316,-0.476 0.338,-0.47C0.36,-0.463 0.379,-0.452 0.396,-0.438C0.413,-0.424 0.426,-0.406 0.435,-0.385C0.444,-0.364 0.449,-0.339 0.449,-0.31L0.449,-0.105C0.449,-0.087 0.45,-0.068 0.451,-0.049C0.452,-0.03 0.454,-0.013 0.457,-0L0.396,-0C0.394,-0.011 0.392,-0.024 0.391,-0.037C0.39,-0.05 0.389,-0.063 0.389,-0.076L0.387,-0.076C0.366,-0.045 0.341,-0.022 0.315,-0.009C0.288,0.005 0.255,0.012 0.217,0.012C0.199,0.012 0.181,0.01 0.162,0.005C0.142,-0 0.125,-0.009 0.11,-0.02C0.094,-0.031 0.081,-0.046 0.071,-0.064C0.06,-0.082 0.055,-0.104 0.055,-0.13C0.055,-0.166 0.064,-0.195 0.083,-0.216C0.101,-0.237 0.125,-0.252 0.156,-0.263C0.187,-0.273 0.222,-0.28 0.262,-0.283C0.301,-0.286 0.342,-0.287 0.385,-0.287L0.385,-0.302ZM0.365,-0.234C0.337,-0.234 0.309,-0.233 0.281,-0.231C0.252,-0.228 0.227,-0.224 0.204,-0.217C0.181,-0.21 0.162,-0.199 0.147,-0.186C0.132,-0.173 0.125,-0.155 0.125,-0.133C0.125,-0.116 0.128,-0.102 0.135,-0.091C0.141,-0.08 0.149,-0.07 0.16,-0.064C0.171,-0.056 0.183,-0.051 0.196,-0.049C0.209,-0.046 0.222,-0.044 0.235,-0.044C0.259,-0.044 0.28,-0.048 0.299,-0.057C0.318,-0.065 0.333,-0.076 0.346,-0.091C0.359,-0.105 0.368,-0.121 0.375,-0.14C0.382,-0.159 0.385,-0.178 0.385,-0.199L0.385,-0.234L0.365,-0.234Z" style="fill:rgb(197,72,28);fill-rule:nonzero;"/>
            </g>
            <g transform="matrix(13.1063,0,0,13.1063,833.292,277.605)">
                <path d="M0.151,-0.468C0.152,-0.455 0.153,-0.441 0.154,-0.426C0.155,-0.411 0.155,-0.398 0.155,-0.388L0.157,-0.388C0.17,-0.415 0.192,-0.438 0.222,-0.455C0.252,-0.471 0.284,-0.48 0.317,-0.48C0.376,-0.48 0.421,-0.462 0.451,-0.427C0.48,-0.392 0.495,-0.345 0.495,-0.287L0.495,-0L0.427,-0L0.427,-0.259C0.427,-0.284 0.425,-0.306 0.421,-0.326C0.417,-0.346 0.41,-0.363 0.401,-0.378C0.391,-0.392 0.378,-0.403 0.362,-0.411C0.345,-0.419 0.325,-0.423 0.3,-0.423C0.282,-0.423 0.265,-0.419 0.248,-0.412C0.231,-0.405 0.215,-0.394 0.202,-0.379C0.189,-0.364 0.178,-0.345 0.17,-0.322C0.162,-0.299 0.158,-0.271 0.158,-0.24L0.158,-0L0.09,-0L0.09,-0.365C0.09,-0.378 0.09,-0.394 0.089,-0.414C0.088,-0.434 0.087,-0.452 0.086,-0.468L0.151,-0.468Z" style="fill:rgb(197,72,28);fill-rule:nonzero;"/>
            </g>
            <g transform="matrix(13.1063,0,0,13.1063,840.906,277.605)">
                <path d="M0.427,-0.361C0.416,-0.379 0.399,-0.394 0.378,-0.406C0.356,-0.417 0.332,-0.423 0.307,-0.423C0.28,-0.423 0.255,-0.418 0.233,-0.409C0.211,-0.399 0.192,-0.386 0.177,-0.369C0.161,-0.352 0.149,-0.332 0.141,-0.309C0.132,-0.286 0.128,-0.261 0.128,-0.234C0.128,-0.207 0.132,-0.183 0.141,-0.16C0.149,-0.137 0.161,-0.118 0.176,-0.101C0.191,-0.084 0.21,-0.07 0.232,-0.061C0.254,-0.051 0.279,-0.046 0.306,-0.046C0.336,-0.046 0.361,-0.052 0.382,-0.063C0.403,-0.074 0.42,-0.089 0.433,-0.107L0.484,-0.069C0.464,-0.044 0.44,-0.025 0.411,-0.01C0.382,0.005 0.347,0.012 0.306,0.012C0.268,0.012 0.234,0.006 0.203,-0.007C0.172,-0.019 0.146,-0.036 0.125,-0.058C0.103,-0.08 0.086,-0.106 0.074,-0.136C0.062,-0.166 0.056,-0.199 0.056,-0.234C0.056,-0.269 0.062,-0.302 0.074,-0.332C0.086,-0.362 0.103,-0.388 0.125,-0.41C0.146,-0.432 0.172,-0.449 0.203,-0.462C0.234,-0.474 0.268,-0.48 0.306,-0.48C0.337,-0.48 0.369,-0.473 0.402,-0.46C0.434,-0.446 0.46,-0.426 0.48,-0.399L0.427,-0.361Z" style="fill:rgb(197,72,28);fill-rule:nonzero;"/>
            </g>
            <g transform="matrix(13.1063,0,0,13.1063,847.459,277.605)">
                <path d="M0.447,-0.27C0.445,-0.314 0.431,-0.351 0.405,-0.38C0.378,-0.409 0.341,-0.423 0.292,-0.423C0.269,-0.423 0.248,-0.419 0.229,-0.411C0.21,-0.402 0.193,-0.391 0.178,-0.377C0.163,-0.362 0.152,-0.346 0.143,-0.328C0.134,-0.309 0.129,-0.29 0.128,-0.27L0.447,-0.27ZM0.516,-0.248L0.516,-0.233C0.516,-0.228 0.516,-0.222 0.515,-0.216L0.127,-0.216C0.128,-0.193 0.132,-0.171 0.141,-0.15C0.15,-0.129 0.162,-0.111 0.177,-0.096C0.192,-0.081 0.21,-0.068 0.231,-0.06C0.252,-0.05 0.274,-0.046 0.298,-0.046C0.333,-0.046 0.364,-0.054 0.39,-0.071C0.415,-0.087 0.435,-0.106 0.448,-0.127L0.499,-0.087C0.471,-0.052 0.44,-0.026 0.407,-0.011C0.373,0.004 0.337,0.012 0.298,0.012C0.263,0.012 0.231,0.006 0.202,-0.007C0.172,-0.019 0.146,-0.036 0.125,-0.058C0.104,-0.08 0.087,-0.106 0.075,-0.136C0.062,-0.166 0.056,-0.199 0.056,-0.234C0.056,-0.269 0.062,-0.302 0.074,-0.332C0.086,-0.362 0.103,-0.388 0.124,-0.41C0.145,-0.432 0.17,-0.449 0.199,-0.462C0.228,-0.474 0.259,-0.48 0.292,-0.48C0.329,-0.48 0.361,-0.474 0.389,-0.462C0.417,-0.449 0.44,-0.433 0.459,-0.412C0.478,-0.391 0.492,-0.366 0.502,-0.338C0.511,-0.31 0.516,-0.28 0.516,-0.248Z" style="fill:rgb(197,72,28);fill-rule:nonzero;"/>
            </g>
            <g transform="matrix(13.1063,0,0,13.1063,854.956,277.605)">
                <path d="M0.159,-0L0.091,-0L0.091,-0.468L0.159,-0.468L0.159,-0ZM0.173,-0.648C0.173,-0.634 0.168,-0.623 0.158,-0.614C0.148,-0.604 0.137,-0.6 0.125,-0.6C0.113,-0.6 0.102,-0.604 0.092,-0.614C0.082,-0.623 0.077,-0.634 0.077,-0.648C0.077,-0.662 0.082,-0.674 0.092,-0.683C0.102,-0.692 0.113,-0.696 0.125,-0.696C0.137,-0.696 0.148,-0.692 0.158,-0.683C0.168,-0.674 0.173,-0.662 0.173,-0.648Z" style="fill:rgb(197,72,28);fill-rule:nonzero;"/>
            </g>
            <g transform="matrix(13.1063,0,0,13.1063,858.233,277.605)">
                <path d="M0.09,-0.365C0.09,-0.378 0.09,-0.394 0.089,-0.414C0.088,-0.434 0.087,-0.452 0.086,-0.468L0.151,-0.468C0.152,-0.455 0.153,-0.441 0.154,-0.426C0.155,-0.411 0.155,-0.398 0.155,-0.388L0.157,-0.388C0.17,-0.415 0.19,-0.438 0.217,-0.455C0.244,-0.471 0.274,-0.48 0.307,-0.48C0.316,-0.48 0.324,-0.48 0.331,-0.479C0.338,-0.478 0.345,-0.477 0.352,-0.475L0.343,-0.411C0.339,-0.412 0.332,-0.414 0.323,-0.415C0.314,-0.416 0.304,-0.417 0.295,-0.417C0.277,-0.417 0.26,-0.414 0.243,-0.407C0.226,-0.4 0.212,-0.39 0.2,-0.376C0.187,-0.361 0.177,-0.343 0.17,-0.321C0.162,-0.298 0.158,-0.271 0.158,-0.24L0.158,-0L0.09,-0L0.09,-0.365Z" style="fill:rgb(197,72,28);fill-rule:nonzero;"/>
            </g>
            <g transform="matrix(13.1063,0,0,13.1063,862.715,277.605)">
                <path d="M0.555,-0.234C0.555,-0.199 0.549,-0.166 0.537,-0.136C0.524,-0.106 0.507,-0.08 0.485,-0.058C0.463,-0.036 0.437,-0.019 0.406,-0.007C0.375,0.006 0.342,0.012 0.305,0.012C0.269,0.012 0.236,0.006 0.205,-0.007C0.174,-0.019 0.148,-0.036 0.126,-0.058C0.104,-0.08 0.087,-0.106 0.075,-0.136C0.062,-0.166 0.056,-0.199 0.056,-0.234C0.056,-0.269 0.062,-0.302 0.075,-0.332C0.087,-0.362 0.104,-0.388 0.126,-0.41C0.148,-0.432 0.174,-0.449 0.205,-0.462C0.236,-0.474 0.269,-0.48 0.305,-0.48C0.342,-0.48 0.375,-0.474 0.406,-0.462C0.437,-0.449 0.463,-0.432 0.485,-0.41C0.507,-0.388 0.524,-0.362 0.537,-0.332C0.549,-0.302 0.555,-0.269 0.555,-0.234ZM0.483,-0.234C0.483,-0.26 0.479,-0.285 0.471,-0.308C0.462,-0.331 0.45,-0.351 0.435,-0.368C0.42,-0.385 0.401,-0.398 0.379,-0.408C0.357,-0.418 0.332,-0.423 0.305,-0.423C0.278,-0.423 0.253,-0.418 0.232,-0.408C0.21,-0.398 0.191,-0.385 0.176,-0.368C0.161,-0.351 0.149,-0.331 0.141,-0.308C0.132,-0.285 0.128,-0.26 0.128,-0.234C0.128,-0.208 0.132,-0.184 0.141,-0.161C0.149,-0.137 0.161,-0.118 0.176,-0.101C0.191,-0.084 0.21,-0.07 0.232,-0.061C0.253,-0.051 0.278,-0.046 0.305,-0.046C0.332,-0.046 0.357,-0.051 0.379,-0.061C0.401,-0.07 0.42,-0.084 0.435,-0.101C0.45,-0.118 0.462,-0.137 0.471,-0.161C0.479,-0.184 0.483,-0.208 0.483,-0.234Z" style="fill:rgb(197,72,28);fill-rule:nonzero;"/>
            </g>
        </g>
        <path d="M834.53,254.73L788.276,254.73C780.577,254.73 774.326,248.471 774.326,240.762C774.326,235.083 777.718,230.191 782.581,228.008C783.551,222.006 788.754,217.417 795.02,217.417C796.609,217.417 798.13,217.713 799.532,218.252C803.078,213.476 809.196,210.319 816.143,210.319C826.728,210.319 835.388,217.648 835.961,226.866C842.989,227.585 848.479,233.536 848.479,240.762C848.479,248.471 842.229,254.73 834.53,254.73ZM802.558,227.442L805.334,237.802L810.23,236.491L805.91,220.37L801.652,221.51L797.758,226.288L800.924,229.539L802.558,227.442ZM816.914,228.767L819.652,231.505L826.439,224.718L823.745,222.023L820.761,225.006L820.877,221.893C820.896,221.567 820.891,221.211 820.862,220.827C820.833,220.442 820.769,220.056 820.668,219.667C820.567,219.278 820.418,218.893 820.221,218.514C820.024,218.134 819.757,217.776 819.421,217.44C818.893,216.912 818.34,216.527 817.764,216.287C817.187,216.047 816.606,215.941 816.02,215.97C815.434,215.999 814.858,216.153 814.291,216.431C813.724,216.71 813.181,217.109 812.662,217.628C812.172,218.118 811.791,218.648 811.517,219.22C811.243,219.792 811.089,220.387 811.056,221.007C811.022,221.627 811.13,222.263 811.38,222.916C811.63,223.57 812.028,224.228 812.576,224.891L815.761,222.225C815.386,221.85 815.165,221.499 815.098,221.173C815.031,220.846 815.098,220.582 815.3,220.38C815.473,220.207 815.657,220.133 815.854,220.157C816.051,220.181 816.232,220.274 816.395,220.438C816.577,220.62 816.705,220.872 816.777,221.194C816.849,221.516 816.89,221.845 816.899,222.181L816.914,228.767ZM828.167,244.413L828.255,244.362C828.955,244.897 829.834,245.211 830.892,245.304C831.95,245.397 833.115,245.077 834.387,244.343C835.443,243.733 836.222,243.003 836.722,242.153C837.223,241.303 837.522,240.42 837.619,239.503C837.715,238.587 837.643,237.67 837.4,236.754C837.158,235.837 836.817,234.997 836.376,234.234C835.891,233.393 835.304,232.649 834.618,232.002C833.931,231.355 833.162,230.847 832.31,230.478C831.458,230.109 830.516,229.89 829.485,229.82C828.453,229.751 827.355,229.882 826.191,230.215L827.963,236.47C828.439,236.3 828.935,236.209 829.45,236.198C829.966,236.188 830.365,236.427 830.647,236.916C830.771,237.131 830.834,237.342 830.837,237.55C830.839,237.757 830.797,237.944 830.711,238.111C830.625,238.279 830.52,238.424 830.396,238.548C830.272,238.672 830.141,238.773 830.004,238.852C828.889,239.496 827.993,239.231 827.315,238.057L826.451,236.561L821.961,239.153L822.723,240.473C823.096,241.119 823.265,241.706 823.231,242.234C823.197,242.763 822.887,243.196 822.3,243.535C821.83,243.806 821.374,243.919 820.931,243.875C820.488,243.831 820.137,243.584 819.877,243.134C819.572,242.606 819.531,242.094 819.755,241.6C819.978,241.106 820.361,240.651 820.902,240.233L816.287,235.425C815.363,236.219 814.648,237.069 814.14,237.975C813.633,238.881 813.317,239.813 813.192,240.772C813.068,241.731 813.126,242.702 813.367,243.684C813.608,244.666 814.006,245.637 814.559,246.596C815.101,247.535 815.748,248.361 816.499,249.075C817.251,249.789 818.092,250.32 819.024,250.669C819.956,251.018 820.973,251.142 822.075,251.04C823.177,250.939 824.334,250.538 825.547,249.838C826.526,249.273 827.269,248.505 827.777,247.533C828.286,246.561 828.416,245.521 828.167,244.413ZM790.991,248.583L790.991,251.083L793.251,251.083L793.251,248.462C793.974,248.301 794.652,248.05 795.284,247.709C795.917,247.367 796.474,246.915 796.957,246.353C797.439,245.791 797.82,245.123 798.101,244.349C798.383,243.576 798.523,242.687 798.523,241.683C798.523,240.739 798.368,239.92 798.056,239.227C797.745,238.534 797.358,237.942 796.896,237.45C796.434,236.958 795.942,236.551 795.42,236.229C794.898,235.908 794.426,235.647 794.004,235.446C793.261,235.105 792.758,234.833 792.497,234.633C792.236,234.432 792.106,234.181 792.106,233.879C792.106,233.498 792.231,233.226 792.482,233.066C792.733,232.905 793.009,232.825 793.311,232.825C793.713,232.825 794.134,232.935 794.576,233.156C795.018,233.377 795.41,233.658 795.751,234L798.825,229.33C798.202,228.747 797.444,228.265 796.55,227.883C795.656,227.502 794.637,227.291 793.492,227.251L793.492,224.901L791.262,224.901L791.262,227.431C790.599,227.592 789.951,227.838 789.319,228.17C788.686,228.501 788.123,228.938 787.631,229.48C787.139,230.023 786.747,230.675 786.456,231.439C786.165,232.202 786.019,233.086 786.019,234.09C786.019,234.974 786.14,235.737 786.381,236.38C786.622,237.023 786.943,237.58 787.345,238.052C787.747,238.524 788.209,238.931 788.731,239.273C789.253,239.614 789.796,239.915 790.358,240.176C791.041,240.498 791.538,240.784 791.849,241.035C792.161,241.286 792.317,241.593 792.317,241.954C792.317,242.255 792.206,242.491 791.985,242.662C791.764,242.833 791.493,242.918 791.172,242.918C790.649,242.918 790.122,242.798 789.59,242.557C789.057,242.316 788.57,242.024 788.128,241.683L785.146,246.353C785.748,246.875 786.552,247.362 787.556,247.814C788.56,248.266 789.705,248.522 790.991,248.583Z" style="fill:rgb(249,105,54);"/>
        <g transform="matrix(1.04448,0,0,1.07277,-40.3646,-18.3518)">
            <path d="M864.567,237.681L870.853,237.681L870.853,245.273L864.608,245.273L864.608,255.518L855.792,255.518L855.792,226.62L871.425,226.62L871.425,234.62L864.567,234.62L864.567,237.681Z" style="fill:rgb(249,105,54);fill-rule:nonzero;"/>
            <rect x="874.322" y="226.62" width="8.98" height="28.898" style="fill:rgb(249,105,54);fill-rule:nonzero;"/>
            <path d="M895.221,241.885L895.098,241.885L895.425,255.518L887.547,255.518L887.547,226.62L896.976,226.62L901.506,240.702L901.67,240.702L901.425,226.62L909.016,226.62L909.016,255.518L899.833,255.518L895.221,241.885Z" style="fill:rgb(249,105,54);fill-rule:nonzero;"/>
        </g>
    </g>
</svg>
