<?xml version="1.0" encoding="UTF-8" standalone="no"?>
<!DOCTYPE svg PUBLIC "-//W3C//DTD SVG 1.1//EN" "http://www.w3.org/Graphics/SVG/1.1/DTD/svg11.dtd">
<svg width="100%" height="100%" viewBox="0 0 146 72" version="1.1" xmlns="http://www.w3.org/2000/svg" xmlns:xlink="http://www.w3.org/1999/xlink" xml:space="preserve" xmlns:serif="http://www.serif.com/" style="fill-rule:evenodd;clip-rule:evenodd;stroke-linejoin:round;stroke-miterlimit:2;">
    <g transform="matrix(1,0,0,1,-774.326,-210.319)">
        <path d="M834.53,254.73L788.276,254.73C780.577,254.73 774.326,248.471 774.326,240.762C774.326,235.083 777.718,230.191 782.581,228.008C783.551,222.006 788.754,217.417 795.02,217.417C796.609,217.417 798.13,217.713 799.532,218.252C803.078,213.476 809.196,210.319 816.143,210.319C826.728,210.319 835.388,217.648 835.961,226.866C842.989,227.585 848.479,233.536 848.479,240.762C848.479,248.471 842.229,254.73 834.53,254.73ZM804.319,225.309L804.319,225.544C804.319,225.662 804.272,225.775 804.189,225.858C804.105,225.941 803.993,225.988 803.875,225.988L802.412,225.988C799.081,225.988 796.377,228.692 796.377,232.022L796.377,242.091C796.377,245.421 799.081,248.125 802.412,248.125L820.394,248.125C823.724,248.125 826.428,245.421 826.428,242.091L826.428,232.022C826.428,228.692 823.724,225.988 820.394,225.988L818.931,225.988C818.813,225.988 818.7,225.941 818.617,225.858C818.534,225.775 818.487,225.662 818.487,225.544L818.487,225.309C818.487,223.078 816.676,221.267 814.445,221.267L808.361,221.267C806.13,221.267 804.319,223.078 804.319,225.309ZM816.487,225.309L816.487,225.544C816.487,226.192 816.744,226.814 817.203,227.272C817.661,227.731 818.283,227.988 818.931,227.988L820.394,227.988C822.62,227.988 824.428,229.796 824.428,232.022L824.428,242.091C824.428,244.317 822.62,246.125 820.394,246.125L802.412,246.125C800.185,246.125 798.377,244.317 798.377,242.091L798.377,232.022C798.377,229.796 800.185,227.988 802.412,227.988L803.875,227.988C804.523,227.988 805.145,227.731 805.603,227.272C806.061,226.814 806.319,226.192 806.319,225.544L806.319,225.309C806.319,224.182 807.234,223.267 808.361,223.267L814.445,223.267C815.572,223.267 816.487,224.182 816.487,225.309ZM811.403,229.233C807.493,229.233 804.319,232.407 804.319,236.317C804.319,240.227 807.493,243.401 811.403,243.401C815.313,243.401 818.487,240.227 818.487,236.317C818.487,232.407 815.313,229.233 811.403,229.233ZM811.403,231.233C814.209,231.233 816.487,233.511 816.487,236.317C816.487,239.123 814.209,241.401 811.403,241.401C808.597,241.401 806.319,239.123 806.319,236.317C806.319,233.511 808.597,231.233 811.403,231.233Z" style="fill:rgb(9,152,206);"/>
        <g transform="matrix(1.40861,0,0,1.40861,-318.134,-113.231)">
            <g transform="matrix(13.1063,0,0,13.1063,774.326,277.605)">
                <path d="M0.166,-0.064L0.496,-0.064L0.496,-0L0.094,-0L0.094,-0.708L0.166,-0.708L0.166,-0.064Z" style="fill:rgb(32,132,191);fill-rule:nonzero;"/>
            </g>
            <g transform="matrix(13.1063,0,0,13.1063,781.011,277.605)">
                <path d="M0.385,-0.302C0.385,-0.343 0.374,-0.373 0.353,-0.393C0.332,-0.413 0.301,-0.423 0.26,-0.423C0.232,-0.423 0.206,-0.418 0.182,-0.408C0.158,-0.398 0.138,-0.385 0.121,-0.368L0.083,-0.413C0.102,-0.432 0.128,-0.448 0.16,-0.461C0.191,-0.474 0.227,-0.48 0.267,-0.48C0.292,-0.48 0.316,-0.476 0.338,-0.47C0.36,-0.463 0.379,-0.452 0.396,-0.438C0.413,-0.424 0.426,-0.406 0.435,-0.385C0.444,-0.364 0.449,-0.339 0.449,-0.31L0.449,-0.105C0.449,-0.087 0.45,-0.068 0.451,-0.049C0.452,-0.03 0.454,-0.013 0.457,-0L0.396,-0C0.394,-0.011 0.392,-0.024 0.391,-0.037C0.39,-0.05 0.389,-0.063 0.389,-0.076L0.387,-0.076C0.366,-0.045 0.341,-0.022 0.315,-0.009C0.288,0.005 0.255,0.012 0.217,0.012C0.199,0.012 0.181,0.01 0.162,0.005C0.142,-0 0.125,-0.009 0.11,-0.02C0.094,-0.031 0.081,-0.046 0.071,-0.064C0.06,-0.082 0.055,-0.104 0.055,-0.13C0.055,-0.166 0.064,-0.195 0.083,-0.216C0.101,-0.237 0.125,-0.252 0.156,-0.263C0.187,-0.273 0.222,-0.28 0.262,-0.283C0.301,-0.286 0.342,-0.287 0.385,-0.287L0.385,-0.302ZM0.365,-0.234C0.337,-0.234 0.309,-0.233 0.281,-0.231C0.252,-0.228 0.227,-0.224 0.204,-0.217C0.181,-0.21 0.162,-0.199 0.147,-0.186C0.132,-0.173 0.125,-0.155 0.125,-0.133C0.125,-0.116 0.128,-0.102 0.135,-0.091C0.141,-0.08 0.149,-0.07 0.16,-0.064C0.171,-0.056 0.183,-0.051 0.196,-0.049C0.209,-0.046 0.222,-0.044 0.235,-0.044C0.259,-0.044 0.28,-0.048 0.299,-0.057C0.318,-0.065 0.333,-0.076 0.346,-0.091C0.359,-0.105 0.368,-0.121 0.375,-0.14C0.382,-0.159 0.385,-0.178 0.385,-0.199L0.385,-0.234L0.365,-0.234Z" style="fill:rgb(32,132,191);fill-rule:nonzero;"/>
            </g>
            <g transform="matrix(13.1063,0,0,13.1063,788.009,277.605)">
                <path d="M0.43,-0C0.429,-0.013 0.428,-0.027 0.427,-0.042C0.426,-0.057 0.426,-0.07 0.426,-0.08L0.424,-0.08C0.411,-0.053 0.389,-0.031 0.359,-0.014C0.329,0.004 0.297,0.012 0.264,0.012C0.205,0.012 0.16,-0.006 0.131,-0.041C0.101,-0.076 0.086,-0.123 0.086,-0.181L0.086,-0.468L0.154,-0.468L0.154,-0.209C0.154,-0.184 0.156,-0.162 0.16,-0.142C0.164,-0.122 0.171,-0.105 0.181,-0.091C0.19,-0.076 0.203,-0.065 0.22,-0.057C0.236,-0.049 0.256,-0.045 0.281,-0.045C0.299,-0.045 0.317,-0.049 0.334,-0.056C0.35,-0.063 0.366,-0.075 0.379,-0.09C0.392,-0.105 0.403,-0.124 0.411,-0.147C0.419,-0.169 0.423,-0.197 0.423,-0.228L0.423,-0.468L0.491,-0.468L0.491,-0.103C0.491,-0.09 0.491,-0.074 0.492,-0.054C0.493,-0.034 0.494,-0.016 0.495,-0L0.43,-0Z" style="fill:rgb(32,132,191);fill-rule:nonzero;"/>
            </g>
            <g transform="matrix(13.1063,0,0,13.1063,795.624,277.605)">
                <path d="M0.475,-0.079C0.455,-0.049 0.429,-0.026 0.397,-0.011C0.365,0.004 0.332,0.012 0.298,0.012C0.261,0.012 0.228,0.006 0.199,-0.007C0.169,-0.02 0.143,-0.037 0.123,-0.059C0.101,-0.081 0.085,-0.107 0.074,-0.137C0.062,-0.167 0.056,-0.199 0.056,-0.234C0.056,-0.269 0.062,-0.301 0.074,-0.331C0.085,-0.361 0.101,-0.387 0.123,-0.409C0.143,-0.431 0.169,-0.448 0.199,-0.461C0.228,-0.474 0.261,-0.48 0.298,-0.48C0.332,-0.48 0.365,-0.472 0.397,-0.457C0.429,-0.441 0.455,-0.418 0.475,-0.387L0.477,-0.387L0.477,-0.756L0.545,-0.756L0.545,-0L0.477,-0L0.477,-0.079L0.475,-0.079ZM0.128,-0.234C0.128,-0.208 0.132,-0.184 0.14,-0.161C0.148,-0.137 0.16,-0.118 0.175,-0.101C0.19,-0.084 0.208,-0.07 0.23,-0.061C0.252,-0.051 0.277,-0.046 0.305,-0.046C0.331,-0.046 0.355,-0.051 0.377,-0.061C0.399,-0.07 0.418,-0.083 0.434,-0.1C0.45,-0.117 0.463,-0.136 0.472,-0.16C0.481,-0.183 0.485,-0.207 0.485,-0.234C0.485,-0.261 0.481,-0.286 0.472,-0.309C0.463,-0.332 0.45,-0.352 0.434,-0.369C0.418,-0.386 0.399,-0.399 0.377,-0.409C0.355,-0.418 0.331,-0.423 0.305,-0.423C0.277,-0.423 0.252,-0.418 0.23,-0.408C0.208,-0.398 0.19,-0.385 0.175,-0.368C0.16,-0.351 0.148,-0.331 0.14,-0.308C0.132,-0.285 0.128,-0.26 0.128,-0.234Z" style="fill:rgb(32,132,191);fill-rule:nonzero;"/>
            </g>
            <g transform="matrix(13.1063,0,0,13.1063,803.973,277.605)">
                <path d="M0.555,-0.234C0.555,-0.199 0.549,-0.166 0.537,-0.136C0.524,-0.106 0.507,-0.08 0.485,-0.058C0.463,-0.036 0.437,-0.019 0.406,-0.007C0.375,0.006 0.342,0.012 0.305,0.012C0.269,0.012 0.236,0.006 0.205,-0.007C0.174,-0.019 0.148,-0.036 0.126,-0.058C0.104,-0.08 0.087,-0.106 0.075,-0.136C0.062,-0.166 0.056,-0.199 0.056,-0.234C0.056,-0.269 0.062,-0.302 0.075,-0.332C0.087,-0.362 0.104,-0.388 0.126,-0.41C0.148,-0.432 0.174,-0.449 0.205,-0.462C0.236,-0.474 0.269,-0.48 0.305,-0.48C0.342,-0.48 0.375,-0.474 0.406,-0.462C0.437,-0.449 0.463,-0.432 0.485,-0.41C0.507,-0.388 0.524,-0.362 0.537,-0.332C0.549,-0.302 0.555,-0.269 0.555,-0.234ZM0.483,-0.234C0.483,-0.26 0.479,-0.285 0.471,-0.308C0.462,-0.331 0.45,-0.351 0.435,-0.368C0.42,-0.385 0.401,-0.398 0.379,-0.408C0.357,-0.418 0.332,-0.423 0.305,-0.423C0.278,-0.423 0.253,-0.418 0.232,-0.408C0.21,-0.398 0.191,-0.385 0.176,-0.368C0.161,-0.351 0.149,-0.331 0.141,-0.308C0.132,-0.285 0.128,-0.26 0.128,-0.234C0.128,-0.208 0.132,-0.184 0.141,-0.161C0.149,-0.137 0.161,-0.118 0.176,-0.101C0.191,-0.084 0.21,-0.07 0.232,-0.061C0.253,-0.051 0.278,-0.046 0.305,-0.046C0.332,-0.046 0.357,-0.051 0.379,-0.061C0.401,-0.07 0.42,-0.084 0.435,-0.101C0.45,-0.118 0.462,-0.137 0.471,-0.161C0.479,-0.184 0.483,-0.208 0.483,-0.234Z" style="fill:rgb(32,132,191);fill-rule:nonzero;"/>
            </g>
            <g transform="matrix(13.1063,0,0,13.1063,811.981,277.605)">
                <path d="M0.339,-0.357C0.329,-0.376 0.314,-0.392 0.294,-0.405C0.273,-0.417 0.25,-0.423 0.224,-0.423C0.212,-0.423 0.2,-0.422 0.188,-0.419C0.176,-0.416 0.165,-0.412 0.156,-0.406C0.147,-0.4 0.139,-0.392 0.134,-0.383C0.128,-0.374 0.125,-0.363 0.125,-0.35C0.125,-0.328 0.134,-0.311 0.152,-0.3C0.17,-0.288 0.198,-0.278 0.237,-0.27C0.292,-0.259 0.333,-0.242 0.36,-0.221C0.386,-0.199 0.399,-0.17 0.399,-0.133C0.399,-0.106 0.394,-0.084 0.384,-0.066C0.373,-0.047 0.36,-0.032 0.343,-0.021C0.326,-0.009 0.308,-0 0.287,0.005C0.266,0.01 0.244,0.012 0.223,0.012C0.188,0.012 0.153,0.005 0.12,-0.01C0.087,-0.025 0.059,-0.048 0.038,-0.079L0.092,-0.119C0.104,-0.098 0.122,-0.081 0.145,-0.067C0.168,-0.053 0.194,-0.046 0.222,-0.046C0.237,-0.046 0.251,-0.047 0.264,-0.05C0.277,-0.053 0.289,-0.057 0.299,-0.064C0.309,-0.071 0.317,-0.079 0.323,-0.09C0.329,-0.1 0.332,-0.113 0.332,-0.128C0.332,-0.153 0.32,-0.171 0.297,-0.184C0.273,-0.196 0.239,-0.207 0.194,-0.218C0.18,-0.221 0.165,-0.226 0.15,-0.231C0.134,-0.236 0.119,-0.243 0.106,-0.253C0.093,-0.262 0.082,-0.274 0.073,-0.289C0.064,-0.304 0.06,-0.322 0.06,-0.344C0.06,-0.368 0.065,-0.389 0.074,-0.406C0.083,-0.423 0.096,-0.436 0.112,-0.448C0.127,-0.459 0.145,-0.467 0.165,-0.472C0.185,-0.477 0.206,-0.48 0.227,-0.48C0.26,-0.48 0.291,-0.473 0.322,-0.458C0.353,-0.443 0.376,-0.423 0.391,-0.396L0.339,-0.357Z" style="fill:rgb(32,132,191);fill-rule:nonzero;"/>
            </g>
            <g transform="matrix(13.1063,0,0,13.1063,821.076,277.605)">
                <path d="M0.447,-0.27C0.445,-0.314 0.431,-0.351 0.405,-0.38C0.378,-0.409 0.341,-0.423 0.292,-0.423C0.269,-0.423 0.248,-0.419 0.229,-0.411C0.21,-0.402 0.193,-0.391 0.178,-0.377C0.163,-0.362 0.152,-0.346 0.143,-0.328C0.134,-0.309 0.129,-0.29 0.128,-0.27L0.447,-0.27ZM0.516,-0.248L0.516,-0.233C0.516,-0.228 0.516,-0.222 0.515,-0.216L0.127,-0.216C0.128,-0.193 0.132,-0.171 0.141,-0.15C0.15,-0.129 0.162,-0.111 0.177,-0.096C0.192,-0.081 0.21,-0.068 0.231,-0.06C0.252,-0.05 0.274,-0.046 0.298,-0.046C0.333,-0.046 0.364,-0.054 0.39,-0.071C0.415,-0.087 0.435,-0.106 0.448,-0.127L0.499,-0.087C0.471,-0.052 0.44,-0.026 0.407,-0.011C0.373,0.004 0.337,0.012 0.298,0.012C0.263,0.012 0.231,0.006 0.202,-0.007C0.172,-0.019 0.146,-0.036 0.125,-0.058C0.104,-0.08 0.087,-0.106 0.075,-0.136C0.062,-0.166 0.056,-0.199 0.056,-0.234C0.056,-0.269 0.062,-0.302 0.074,-0.332C0.086,-0.362 0.103,-0.388 0.124,-0.41C0.145,-0.432 0.17,-0.449 0.199,-0.462C0.228,-0.474 0.259,-0.48 0.292,-0.48C0.329,-0.48 0.361,-0.474 0.389,-0.462C0.417,-0.449 0.44,-0.433 0.459,-0.412C0.478,-0.391 0.492,-0.366 0.502,-0.338C0.511,-0.31 0.516,-0.28 0.516,-0.248Z" style="fill:rgb(32,132,191);fill-rule:nonzero;"/>
            </g>
            <g transform="matrix(13.1063,0,0,13.1063,831.85,277.605)">
                <path d="M0.69,-0.114C0.678,-0.096 0.664,-0.079 0.647,-0.063C0.63,-0.047 0.61,-0.033 0.588,-0.021C0.565,-0.009 0.541,0 0.514,0.008C0.487,0.015 0.457,0.018 0.425,0.018C0.372,0.018 0.322,0.009 0.277,-0.01C0.232,-0.029 0.193,-0.055 0.16,-0.088C0.127,-0.121 0.102,-0.16 0.084,-0.205C0.065,-0.25 0.056,-0.3 0.056,-0.354C0.056,-0.408 0.065,-0.458 0.084,-0.503C0.103,-0.548 0.129,-0.588 0.162,-0.621C0.195,-0.654 0.234,-0.679 0.279,-0.698C0.324,-0.717 0.372,-0.726 0.425,-0.726C0.451,-0.726 0.476,-0.723 0.502,-0.718C0.527,-0.713 0.55,-0.705 0.572,-0.696C0.594,-0.686 0.614,-0.674 0.632,-0.661C0.65,-0.647 0.665,-0.631 0.677,-0.614L0.617,-0.57C0.61,-0.581 0.6,-0.593 0.588,-0.604C0.575,-0.615 0.561,-0.625 0.544,-0.634C0.527,-0.643 0.509,-0.65 0.49,-0.655C0.47,-0.66 0.449,-0.663 0.426,-0.663C0.38,-0.663 0.339,-0.655 0.303,-0.638C0.266,-0.621 0.235,-0.599 0.21,-0.571C0.185,-0.542 0.165,-0.509 0.152,-0.472C0.139,-0.435 0.132,-0.395 0.132,-0.354C0.132,-0.313 0.139,-0.273 0.153,-0.236C0.166,-0.199 0.186,-0.166 0.211,-0.138C0.236,-0.109 0.267,-0.087 0.304,-0.07C0.34,-0.053 0.381,-0.045 0.426,-0.045C0.467,-0.045 0.505,-0.053 0.542,-0.07C0.579,-0.087 0.609,-0.113 0.634,-0.15L0.69,-0.114Z" style="fill:rgb(32,132,191);fill-rule:nonzero;"/>
            </g>
            <g transform="matrix(13.1063,0,0,13.1063,841.05,277.605)">
                <path d="M0.385,-0.302C0.385,-0.343 0.374,-0.373 0.353,-0.393C0.332,-0.413 0.301,-0.423 0.26,-0.423C0.232,-0.423 0.206,-0.418 0.182,-0.408C0.158,-0.398 0.138,-0.385 0.121,-0.368L0.083,-0.413C0.102,-0.432 0.128,-0.448 0.16,-0.461C0.191,-0.474 0.227,-0.48 0.267,-0.48C0.292,-0.48 0.316,-0.476 0.338,-0.47C0.36,-0.463 0.379,-0.452 0.396,-0.438C0.413,-0.424 0.426,-0.406 0.435,-0.385C0.444,-0.364 0.449,-0.339 0.449,-0.31L0.449,-0.105C0.449,-0.087 0.45,-0.068 0.451,-0.049C0.452,-0.03 0.454,-0.013 0.457,-0L0.396,-0C0.394,-0.011 0.392,-0.024 0.391,-0.037C0.39,-0.05 0.389,-0.063 0.389,-0.076L0.387,-0.076C0.366,-0.045 0.341,-0.022 0.315,-0.009C0.288,0.005 0.255,0.012 0.217,0.012C0.199,0.012 0.181,0.01 0.162,0.005C0.142,-0 0.125,-0.009 0.11,-0.02C0.094,-0.031 0.081,-0.046 0.071,-0.064C0.06,-0.082 0.055,-0.104 0.055,-0.13C0.055,-0.166 0.064,-0.195 0.083,-0.216C0.101,-0.237 0.125,-0.252 0.156,-0.263C0.187,-0.273 0.222,-0.28 0.262,-0.283C0.301,-0.286 0.342,-0.287 0.385,-0.287L0.385,-0.302ZM0.365,-0.234C0.337,-0.234 0.309,-0.233 0.281,-0.231C0.252,-0.228 0.227,-0.224 0.204,-0.217C0.181,-0.21 0.162,-0.199 0.147,-0.186C0.132,-0.173 0.125,-0.155 0.125,-0.133C0.125,-0.116 0.128,-0.102 0.135,-0.091C0.141,-0.08 0.149,-0.07 0.16,-0.064C0.171,-0.056 0.183,-0.051 0.196,-0.049C0.209,-0.046 0.222,-0.044 0.235,-0.044C0.259,-0.044 0.28,-0.048 0.299,-0.057C0.318,-0.065 0.333,-0.076 0.346,-0.091C0.359,-0.105 0.368,-0.121 0.375,-0.14C0.382,-0.159 0.385,-0.178 0.385,-0.199L0.385,-0.234L0.365,-0.234Z" style="fill:rgb(32,132,191);fill-rule:nonzero;"/>
            </g>
            <g transform="matrix(13.1063,0,0,13.1063,848.049,277.605)">
                <path d="M0.158,0.24L0.09,0.24L0.09,-0.468L0.158,-0.468L0.158,-0.387L0.161,-0.387C0.18,-0.418 0.206,-0.441 0.239,-0.457C0.271,-0.472 0.304,-0.48 0.337,-0.48C0.374,-0.48 0.407,-0.474 0.437,-0.461C0.466,-0.448 0.492,-0.431 0.513,-0.409C0.534,-0.387 0.55,-0.361 0.562,-0.331C0.573,-0.301 0.579,-0.269 0.579,-0.234C0.579,-0.199 0.573,-0.167 0.562,-0.137C0.55,-0.107 0.534,-0.081 0.513,-0.059C0.492,-0.037 0.466,-0.02 0.437,-0.007C0.407,0.006 0.374,0.012 0.337,0.012C0.304,0.012 0.271,0.004 0.239,-0.012C0.206,-0.027 0.18,-0.05 0.161,-0.079L0.158,-0.079L0.158,0.24ZM0.507,-0.234C0.507,-0.26 0.503,-0.285 0.495,-0.308C0.487,-0.331 0.475,-0.351 0.461,-0.368C0.446,-0.385 0.427,-0.398 0.405,-0.408C0.383,-0.418 0.358,-0.423 0.33,-0.423C0.304,-0.423 0.28,-0.418 0.258,-0.409C0.236,-0.399 0.217,-0.386 0.201,-0.369C0.185,-0.352 0.172,-0.332 0.164,-0.309C0.155,-0.286 0.15,-0.261 0.15,-0.234C0.15,-0.207 0.155,-0.183 0.164,-0.16C0.172,-0.136 0.185,-0.117 0.201,-0.1C0.217,-0.083 0.236,-0.07 0.258,-0.061C0.28,-0.051 0.304,-0.046 0.33,-0.046C0.358,-0.046 0.383,-0.051 0.405,-0.061C0.427,-0.07 0.446,-0.084 0.461,-0.101C0.475,-0.118 0.487,-0.137 0.495,-0.161C0.503,-0.184 0.507,-0.208 0.507,-0.234Z" style="fill:rgb(32,132,191);fill-rule:nonzero;"/>
            </g>
            <g transform="matrix(13.1063,0,0,13.1063,856.372,277.605)">
                <path d="M0.301,-0.411L0.169,-0.411L0.169,-0.138C0.169,-0.121 0.171,-0.106 0.174,-0.095C0.177,-0.084 0.182,-0.075 0.189,-0.069C0.195,-0.062 0.202,-0.058 0.211,-0.056C0.22,-0.053 0.229,-0.052 0.239,-0.052C0.248,-0.052 0.258,-0.053 0.269,-0.056C0.279,-0.059 0.289,-0.062 0.298,-0.067L0.301,-0.008C0.289,-0.003 0.277,0 0.264,0.003C0.251,0.005 0.236,0.006 0.221,0.006C0.208,0.006 0.195,0.004 0.181,0.001C0.167,-0.002 0.154,-0.009 0.142,-0.018C0.13,-0.027 0.12,-0.04 0.113,-0.056C0.105,-0.072 0.101,-0.093 0.101,-0.119L0.101,-0.411L0.004,-0.411L0.004,-0.468L0.101,-0.468L0.101,-0.6L0.169,-0.6L0.169,-0.468L0.301,-0.468L0.301,-0.411Z" style="fill:rgb(32,132,191);fill-rule:nonzero;"/>
            </g>
            <g transform="matrix(13.1063,0,0,13.1063,860.526,277.605)">
                <path d="M0.43,-0C0.429,-0.013 0.428,-0.027 0.427,-0.042C0.426,-0.057 0.426,-0.07 0.426,-0.08L0.424,-0.08C0.411,-0.053 0.389,-0.031 0.359,-0.014C0.329,0.004 0.297,0.012 0.264,0.012C0.205,0.012 0.16,-0.006 0.131,-0.041C0.101,-0.076 0.086,-0.123 0.086,-0.181L0.086,-0.468L0.154,-0.468L0.154,-0.209C0.154,-0.184 0.156,-0.162 0.16,-0.142C0.164,-0.122 0.171,-0.105 0.181,-0.091C0.19,-0.076 0.203,-0.065 0.22,-0.057C0.236,-0.049 0.256,-0.045 0.281,-0.045C0.299,-0.045 0.317,-0.049 0.334,-0.056C0.35,-0.063 0.366,-0.075 0.379,-0.09C0.392,-0.105 0.403,-0.124 0.411,-0.147C0.419,-0.169 0.423,-0.197 0.423,-0.228L0.423,-0.468L0.491,-0.468L0.491,-0.103C0.491,-0.09 0.491,-0.074 0.492,-0.054C0.493,-0.034 0.494,-0.016 0.495,-0L0.43,-0Z" style="fill:rgb(32,132,191);fill-rule:nonzero;"/>
            </g>
            <g transform="matrix(13.1063,0,0,13.1063,868.141,277.605)">
                <path d="M0.09,-0.365C0.09,-0.378 0.09,-0.394 0.089,-0.414C0.088,-0.434 0.087,-0.452 0.086,-0.468L0.151,-0.468C0.152,-0.455 0.153,-0.441 0.154,-0.426C0.155,-0.411 0.155,-0.398 0.155,-0.388L0.157,-0.388C0.17,-0.415 0.19,-0.438 0.217,-0.455C0.244,-0.471 0.274,-0.48 0.307,-0.48C0.316,-0.48 0.324,-0.48 0.331,-0.479C0.338,-0.478 0.345,-0.477 0.352,-0.475L0.343,-0.411C0.339,-0.412 0.332,-0.414 0.323,-0.415C0.314,-0.416 0.304,-0.417 0.295,-0.417C0.277,-0.417 0.26,-0.414 0.243,-0.407C0.226,-0.4 0.212,-0.39 0.2,-0.376C0.187,-0.361 0.177,-0.343 0.17,-0.321C0.162,-0.298 0.158,-0.271 0.158,-0.24L0.158,-0L0.09,-0L0.09,-0.365Z" style="fill:rgb(32,132,191);fill-rule:nonzero;"/>
            </g>
            <g transform="matrix(13.1063,0,0,13.1063,872.702,277.605)">
                <path d="M0.385,-0.302C0.385,-0.343 0.374,-0.373 0.353,-0.393C0.332,-0.413 0.301,-0.423 0.26,-0.423C0.232,-0.423 0.206,-0.418 0.182,-0.408C0.158,-0.398 0.138,-0.385 0.121,-0.368L0.083,-0.413C0.102,-0.432 0.128,-0.448 0.16,-0.461C0.191,-0.474 0.227,-0.48 0.267,-0.48C0.292,-0.48 0.316,-0.476 0.338,-0.47C0.36,-0.463 0.379,-0.452 0.396,-0.438C0.413,-0.424 0.426,-0.406 0.435,-0.385C0.444,-0.364 0.449,-0.339 0.449,-0.31L0.449,-0.105C0.449,-0.087 0.45,-0.068 0.451,-0.049C0.452,-0.03 0.454,-0.013 0.457,-0L0.396,-0C0.394,-0.011 0.392,-0.024 0.391,-0.037C0.39,-0.05 0.389,-0.063 0.389,-0.076L0.387,-0.076C0.366,-0.045 0.341,-0.022 0.315,-0.009C0.288,0.005 0.255,0.012 0.217,0.012C0.199,0.012 0.181,0.01 0.162,0.005C0.142,-0 0.125,-0.009 0.11,-0.02C0.094,-0.031 0.081,-0.046 0.071,-0.064C0.06,-0.082 0.055,-0.104 0.055,-0.13C0.055,-0.166 0.064,-0.195 0.083,-0.216C0.101,-0.237 0.125,-0.252 0.156,-0.263C0.187,-0.273 0.222,-0.28 0.262,-0.283C0.301,-0.286 0.342,-0.287 0.385,-0.287L0.385,-0.302ZM0.365,-0.234C0.337,-0.234 0.309,-0.233 0.281,-0.231C0.252,-0.228 0.227,-0.224 0.204,-0.217C0.181,-0.21 0.162,-0.199 0.147,-0.186C0.132,-0.173 0.125,-0.155 0.125,-0.133C0.125,-0.116 0.128,-0.102 0.135,-0.091C0.141,-0.08 0.149,-0.07 0.16,-0.064C0.171,-0.056 0.183,-0.051 0.196,-0.049C0.209,-0.046 0.222,-0.044 0.235,-0.044C0.259,-0.044 0.28,-0.048 0.299,-0.057C0.318,-0.065 0.333,-0.076 0.346,-0.091C0.359,-0.105 0.368,-0.121 0.375,-0.14C0.382,-0.159 0.385,-0.178 0.385,-0.199L0.385,-0.234L0.365,-0.234Z" style="fill:rgb(32,132,191);fill-rule:nonzero;"/>
            </g>
        </g>
        <g transform="matrix(1.03546,0,0,1.0678,-32.4694,-18.0592)">
            <g transform="matrix(40.8165,0,0,40.8165,853.669,255.518)">
                <path d="M0.052,-0.708L0.271,-0.708L0.271,-0.2L0.453,-0.2L0.453,-0L0.052,-0L0.052,-0.708Z" style="fill:rgb(9,152,206);fill-rule:nonzero;"/>
            </g>
            <g transform="matrix(40.8165,0,0,40.8165,872.649,255.518)">
                <path d="M0.354,-0.098L0.232,-0.098L0.213,-0L-0.004,-0L0.163,-0.708L0.432,-0.708L0.6,-0L0.373,-0L0.354,-0.098ZM0.256,-0.266L0.328,-0.266L0.295,-0.496L0.291,-0.496L0.256,-0.266Z" style="fill:rgb(9,152,206);fill-rule:nonzero;"/>
            </g>
            <g transform="matrix(40.8165,0,0,40.8165,896.486,255.518)">
                <path d="M0.297,0.02C0.25,0.02 0.211,0.012 0.178,-0.003C0.145,-0.018 0.119,-0.038 0.098,-0.065C0.077,-0.092 0.061,-0.123 0.052,-0.159C0.042,-0.195 0.037,-0.234 0.037,-0.276L0.037,-0.708L0.256,-0.708L0.256,-0.295C0.256,-0.261 0.259,-0.235 0.265,-0.218C0.27,-0.2 0.282,-0.191 0.301,-0.191C0.32,-0.191 0.332,-0.2 0.338,-0.218C0.344,-0.235 0.347,-0.261 0.347,-0.295L0.347,-0.708L0.563,-0.708L0.563,-0.276C0.563,-0.234 0.558,-0.195 0.548,-0.159C0.537,-0.123 0.521,-0.092 0.5,-0.065C0.478,-0.038 0.45,-0.018 0.417,-0.003C0.384,0.012 0.344,0.02 0.297,0.02Z" style="fill:rgb(9,152,206);fill-rule:nonzero;"/>
            </g>
        </g>
    </g>
</svg>
