<svg width="1678" height="691" viewBox="0 0 1678 691" fill="none" xmlns="http://www.w3.org/2000/svg">
    <path fill-rule="evenodd" clip-rule="evenodd" d="M319.985 14.376V51.2441H237.301V641.553H373.445C391.965 641.553 410.621 638.448 429.422 632.275C448.032 626.168 465.504 615.99 481.89 601.83C498.633 587.36 513.623 568.598 526.961 545.62C540.49 522.309 550.934 493.935 558.417 460.551L560.545 451.064H594.104V678.421H0V641.553H82.6844V51.2441H0V14.376H319.985ZM1122.4 492.797C1127.01 482.231 1131.7 468.938 1136.54 452.948C1145.25 424.224 1149.5 387.804 1149.5 343.704C1149.5 319.793 1147.74 300.569 1144.04 286.051C1140.73 273.088 1135.99 262.941 1129.38 255.825C1123.17 249.135 1115.38 244.641 1106.06 242.254C1095.24 239.478 1082.61 238.142 1068.18 238.142H1056.03V201.27H1261.88V236.209L1251.81 237.961C1238.6 240.258 1227.68 242.681 1219.07 245.266C1212.6 247.205 1207.32 250.87 1203.23 256.255C1198.45 262.549 1195.17 271.71 1192.91 283.539C1190.29 297.211 1188.43 316.556 1187.27 341.595V341.615C1186.66 353.732 1185.6 368.126 1184.08 384.788C1182.55 401.625 1180.11 419.071 1176.74 437.129C1173.34 455.35 1168.71 473.258 1162.84 490.861C1157.66 506.392 1151.18 520.633 1143.43 533.59L1181.19 600.056C1183.28 603.707 1187 608.346 1192.21 614.078C1196.03 618.277 1201.52 619.988 1208.39 619.988C1213.58 619.988 1217.81 618.482 1220.93 615.022C1225.43 610.019 1229.05 604.255 1231.8 597.749C1234.63 591.076 1236.45 584.671 1237.22 578.511C1238.03 572.075 1238.48 567.786 1238.48 565.642C1238.48 563.206 1238.37 561.009 1238.12 559.063C1237.94 557.55 1237.41 555.867 1236.65 553.979L1229.99 537.323H1268.02L1271.38 544.038C1272.27 545.818 1273.28 548.67 1274.17 552.674C1274.96 556.203 1275.36 559.923 1275.36 563.844C1275.36 566.37 1274.76 574.101 1273.51 587.037C1272.17 600.757 1267.42 615.352 1259.05 630.745C1250.75 646.023 1237.89 659.902 1220.28 672.193C1202.73 684.442 1178.17 691 1146.37 691C1116.87 691 1094.19 684.678 1078.1 672.946C1066.08 664.181 1055.23 654.142 1045.56 642.83C1039.68 647.379 1033.87 651.734 1028.12 655.898C1018.76 662.678 1008.11 668.664 996.159 673.831C984.393 678.918 970.884 683.075 955.62 686.253C940.529 689.397 922.929 691 902.812 691C854.94 691 816.254 683.04 786.648 667.613C756.744 652.029 733.434 633.174 716.573 611.226C699.619 589.161 688.162 566.27 682.084 542.605C676.09 519.262 673.164 499.38 673.164 482.977C673.164 453.375 679.197 426.844 691.105 403.356C702.739 380.406 717.521 359.656 735.444 341.105C753.076 322.857 772.411 306.465 793.444 291.929C811.003 279.799 828.121 268.438 844.798 257.851C836.843 236.681 830.752 219.335 826.51 205.819C821.339 189.344 818.764 172.706 818.764 155.911C818.764 135.647 822.849 116.198 831.019 97.5678C839.068 79.2258 849.855 62.8165 863.374 48.3364C876.958 33.78 892.493 22.1453 909.962 13.4115C927.913 4.43823 946.207 0 964.824 0C977.524 0 989.554 1.85661 1000.92 5.53127C1012.8 9.37596 1023.29 15.4969 1032.38 23.8872C1041.44 32.2497 1048.68 43.1661 1053.91 56.7544C1058.86 69.6348 1061.45 85.3016 1061.45 103.796C1061.45 123.443 1056.19 144.277 1045.37 166.217C1035.73 185.798 1016.36 206.312 986.784 227.271L1122.4 492.797ZM873.071 319.484C868.791 310.927 864.821 302.523 861.152 294.275C860.704 293.269 860.274 292.304 859.858 291.381C852.225 297.349 845.329 302.915 839.165 308.082C830.693 315.185 823.571 322.687 817.83 330.609C812.37 338.149 808.344 346.473 805.741 355.575C803.013 365.117 801.715 376.44 801.715 389.528C801.715 399.605 803.759 412.891 807.678 429.405C811.76 446.605 817.455 464.826 824.744 484.067C832.06 503.37 840.838 522.677 851.08 541.98C861.222 561.103 872.228 578.349 884.108 593.703C895.628 608.589 907.963 620.831 921.166 630.38C932.925 638.885 944.729 643.351 956.737 643.351C970.641 643.351 983.147 640.2 994.218 633.763C1004.04 628.052 1014.5 620.98 1025.58 612.555C1022.42 607.85 1019.78 603.676 1017.67 600.029C1014.23 594.092 1010.95 587.693 1007.82 580.833L873.106 319.55L873.071 319.484ZM1025.48 105.59C1025.48 96.9884 1024.39 88.3864 1022.24 79.7844C1020.16 71.46 1017.06 63.9095 1012.9 57.1466C1009.09 50.9597 1004.22 45.949 998.272 42.1425C992.584 38.5025 985.597 36.8681 977.406 36.8681C975.782 36.8681 972.12 37.1701 966.424 37.7114C961.659 38.166 956.703 39.9843 951.479 42.9337C946.159 45.9387 941.56 50.9319 937.398 57.6358C932.966 64.7735 931.137 74.8224 931.137 87.6195C931.137 95.6767 932.38 104.4 934.799 113.8C937.367 123.783 940.796 134.051 945.076 144.606C949.435 155.363 954.381 166.116 959.903 176.87C963.179 183.248 966.404 189.271 969.579 194.941C972.884 192.599 976.434 190.073 980.231 187.359C987.87 181.905 995.09 175.208 1001.91 167.3C1008.66 159.472 1014.31 150.422 1018.9 140.168C1023.35 130.22 1025.48 118.682 1025.48 105.59ZM1678 14.376V51.2441H1595.32V641.553H1678V678.421H1358.02V641.553H1440.7V51.2441H1358.02V14.376H1678Z" fill="#25c2a0"/>
</svg>
